<?xml version="1.0" encoding="utf-8"?>
<!-- Generator: Adobe Illustrator 18.1.1, SVG Export Plug-In . SVG Version: 6.00 Build 0)  -->
<svg version="1.1" id="Layer_1" xmlns="http://www.w3.org/2000/svg" xmlns:xlink="http://www.w3.org/1999/xlink" x="0px" y="0px"
	 viewBox="0 0 4000 3000" enable-background="new 0 0 4000 3000" xml:space="preserve">
<g>
	<defs>
		<rect id="SVGID_1_" width="4000" height="3000"/>
	</defs>
	<clipPath id="SVGID_2_">
		<use xlink:href="#SVGID_1_"  overflow="visible"/>
	</clipPath>
	<g clip-path="url(#SVGID_2_)">
		<rect fill="#77D2F7" width="4000" height="1305.6"/>
		<g>
			<circle opacity="0.3" fill="#FBDAA6" cx="2329" cy="1074.1" r="799.7"/>
			<circle opacity="0.6" fill="#FBDAA6" cx="2329" cy="1074.1" r="512.6"/>
			<circle fill="#FCB746" cx="2329" cy="1074.1" r="310.3"/>
		</g>
		<rect y="1305.6" fill="#46B1DF" width="4000" height="1694.4"/>
		<g opacity="0.2">
			<path fill="#FFFFFF" d="M1079.3,1597.9h-2194.8c-25.7,0-46.6-20.9-46.6-46.6l0,0c0-25.7,20.9-46.6,46.6-46.6h2194.8
				c25.7,0,46.6,20.9,46.6,46.6l0,0C1125.9,1577,1105,1597.9,1079.3,1597.9z"/>
			<path fill="#FFFFFF" d="M1296.4,1955H-898.5c-25.7,0-46.6-20.9-46.6-46.6v0c0-25.7,20.9-46.6,46.6-46.6h2194.8
				c25.7,0,46.6,20.9,46.6,46.6v0C1342.9,1934.1,1322.1,1955,1296.4,1955z"/>
			<path fill="#FFFFFF" d="M4283.2,2199.4H2611.6c-25.7,0-46.6-20.9-46.6-46.6l0,0c0-25.7,20.9-46.6,46.6-46.6h1671.6
				c25.7,0,46.6,20.9,46.6,46.6l0,0C4329.8,2178.5,4308.9,2199.4,4283.2,2199.4z"/>
			<path fill="#FFFFFF" d="M5186.3,1746.6H2991.5c-25.7,0-46.6-20.9-46.6-46.6v0c0-25.7,20.9-46.6,46.6-46.6h2194.8
				c25.7,0,46.6,20.9,46.6,46.6v0C5232.9,1725.8,5212.1,1746.6,5186.3,1746.6z"/>
			<path fill="#FFFFFF" d="M2080.8,1546.6H1552c-25.7,0-46.6-20.9-46.6-46.6l0,0c0-25.7,20.9-46.6,46.6-46.6h528.9
				c25.7,0,46.6,20.9,46.6,46.6l0,0C2127.4,1525.7,2106.5,1546.6,2080.8,1546.6z"/>
			<path fill="#FFFFFF" d="M2112.7,2152.8h-452.8c-25.7,0-46.6-20.9-46.6-46.6l0,0c0-25.7,20.9-46.6,46.6-46.6h452.8
				c25.7,0,46.6,20.9,46.6,46.6l0,0C2159.3,2131.9,2138.5,2152.8,2112.7,2152.8z"/>
			<path fill="#FFFFFF" d="M2518.4,1841.5h-528.9c-25.7,0-46.6-20.9-46.6-46.6v0c0-25.7,20.9-46.6,46.6-46.6h528.9
				c25.7,0,46.6,20.9,46.6,46.6v0C2565,1820.7,2544.1,1841.5,2518.4,1841.5z"/>
			<path fill="#FFFFFF" d="M3334.5,1500h-528.9c-25.7,0-46.6-20.9-46.6-46.6l0,0c0-25.7,20.9-46.6,46.6-46.6h528.9
				c25.7,0,46.6,20.9,46.6,46.6l0,0C3381.1,1479.1,3360.3,1500,3334.5,1500z"/>
		</g>
		<path fill="#39B54A" d="M0,2337.2c0,0,831.1-494.9,1867.9,0s2132.1-110,2132.1-110V3000H0V2337.2z"/>
		<path fill="#34A849" d="M0,2472.9c0,0,831.1-393.6,1867.9,0s2132.1-87.5,2132.1-87.5V3000H0V2472.9z"/>
		<g>
			<path fill="#33A349" d="M0,1116.1c0,0,473.2-426.3,1294.3-205.3s952.6,457.9,1663.2,168.4s1042.6-232,1042.6-232v458.3H0V1116.1z
				"/>
			<path fill="#2B8842" d="M0,1178.6c0,0,473.2-285.8,1294.3-137.6s952.6,306.9,1663.2,112.9S4000,998.4,4000,998.4v307.2H0V1178.6z
				"/>
			<path fill="#246935" d="M0,1258c0,0,473.2-107.1,1294.3-51.6s952.6,115.1,1663.2,42.3s1042.6-58.3,1042.6-58.3v115.2H0V1258z"/>
		</g>
		<g>
			<polygon fill="#603913" points="583.2,2784.4 346.3,2784.4 396.3,1794.9 533.2,1794.9 			"/>
			<path fill="#2E9245" d="M939.2,1627.6c-5,30.2,43.4,73.7,33.6,101.9c-10,28.8-75.1,32.8-89.6,59c-14.7,26.6,16.5,83.9-2.3,107.3
				c-18.9,23.6-81.6,5.5-104.2,25.4c-22.7,19.9-12.9,84.4-38.7,100.1c-25.7,15.6-78.2-23-106.5-12.2c-27.9,10.6-41.5,74.5-71.5,80
				c-29.2,5.4-64.5-49.4-95.2-49.4s-66,54.7-95.2,49.4c-30-5.5-43.5-69.3-71.5-80c-28.3-10.8-80.8,27.8-106.6,12.2
				c-25.8-15.6-16-80.1-38.7-100.1c-22.6-19.9-85.3-1.8-104.2-25.4c-18.8-23.4,12.4-80.7-2.3-107.3c-14.5-26.2-79.6-30.2-89.6-59
				c-9.8-28.2,38.7-71.7,33.6-101.9c-4.9-29.3-65.1-54.6-65.1-85.3c0-26.7,45.4-49.3,60.5-74c2.3-3.7,3.9-7.5,4.5-11.3
				c0.4-2.2,0.5-4.4,0.3-6.7c-0.4-5.7-2.2-11.8-4.8-18c0,0,0,0,0,0c-11.1-26.3-36.4-56-29.1-77.1c10-28.8,75.1-32.8,89.6-59
				c14.7-26.5-16.4-83.8,2.3-107.3c19-23.6,81.6-5.5,104.2-25.4c22.7-19.9,12.9-84.4,38.7-100.1c25.7-15.6,78.2,23,106.5,12.2
				c27.9-10.6,41.5-74.5,71.5-80c29.2-5.4,64.5,49.4,95.2,49.4s66-54.7,95.2-49.4c30,5.5,43.5,69.3,71.5,80
				c28.3,10.8,80.8-27.8,106.5-12.2c25.8,15.6,16,80.2,38.7,100.1c22.6,19.9,85.3,1.8,104.2,25.4c18.8,23.4-12.4,80.7,2.3,107.3
				c14.5,26.2,79.6,30.2,89.6,59c7.3,21.1-18.1,50.9-29.1,77.2c-2.6,6.3-4.4,12.3-4.8,18c-0.2,2.3-0.1,4.5,0.3,6.7
				c0.6,3.8,2.2,7.6,4.5,11.3c15.1,24.7,60.5,47.3,60.5,74C1004.3,1573,944.1,1598.3,939.2,1627.6z"/>
			<path fill="#39B54A" d="M972.8,1545.5c-10,28.8-75.1,32.8-89.6,59c-14.7,26.6,16.5,83.9-2.3,107.3
				c-18.9,23.6-81.6,5.5-104.2,25.4c-22.7,19.9-12.9,84.4-38.7,100.1c-25.7,15.6-78.2-23-106.5-12.2c-27.9,10.6-41.5,74.5-71.5,80
				c-29.2,5.4-64.5-49.4-95.2-49.4s-66,54.7-95.2,49.4c-30-5.5-43.5-69.3-71.5-80c-28.3-10.8-80.8,27.8-106.6,12.2
				c-25.8-15.6-16-80.1-38.7-100.1c-22.6-19.9-85.3-1.8-104.2-25.4c-18.8-23.4,12.4-80.7-2.3-107.3c-14.5-26.2-79.6-30.2-89.6-59
				c-7.3-21.1,18.1-50.9,29.1-77.2c2.6-6.3,4.5-12.3,4.8-18c0.2-2.3,0.1-4.5-0.3-6.7c-0.6-3.8-2.2-7.6-4.5-11.3c0,0,0,0,0,0
				c-11.1-26.3-36.4-56-29.1-77.1c10-28.8,75.1-32.8,89.6-59c14.7-26.5-16.4-83.8,2.3-107.3c19-23.6,81.6-5.5,104.2-25.4
				c22.7-19.9,12.9-84.4,38.7-100.1c25.7-15.6,78.2,23,106.5,12.2c27.9-10.6,41.5-74.5,71.5-80c29.2-5.4,64.5,49.4,95.2,49.4
				s66-54.7,95.2-49.4c30,5.5,43.5,69.3,71.5,80c28.3,10.8,80.8-27.8,106.5-12.2c25.8,15.6,16,80.2,38.7,100.1
				c22.6,19.9,85.3,1.8,104.2,25.4c18.8,23.4-12.4,80.7,2.3,107.3c14.5,26.2,79.6,30.2,89.6,59c7.3,21.1-18.1,50.9-29.1,77.2
				c-2.3,3.7-3.9,7.5-4.5,11.3c-0.4,2.2-0.4,4.4-0.3,6.7c0.4,5.7,2.2,11.8,4.8,18C954.8,1494.6,980.2,1524.4,972.8,1545.5z"/>
		</g>
		<g>
			<polygon fill="#603913" points="3698,2689.5 3461.1,2689.5 3511.1,1700 3648,1700 			"/>
			<path fill="#2E9245" d="M4054,1532.7c-5,30.2,43.4,73.7,33.6,101.9c-10,28.8-75.1,32.8-89.6,59c-14.7,26.6,16.5,83.9-2.3,107.3
				c-18.9,23.6-81.6,5.5-104.2,25.4c-22.7,19.9-12.9,84.4-38.7,100.1c-25.7,15.6-78.2-23-106.5-12.2c-27.9,10.6-41.5,74.5-71.5,80
				c-29.2,5.4-64.5-49.4-95.2-49.4s-66,54.7-95.2,49.4c-30-5.5-43.5-69.3-71.5-80c-28.3-10.8-80.8,27.8-106.6,12.2
				c-25.8-15.6-16-80.1-38.7-100.1c-22.6-19.9-85.3-1.8-104.2-25.4c-18.8-23.4,12.4-80.7-2.3-107.3c-14.5-26.2-79.6-30.2-89.6-59
				c-9.8-28.2,38.7-71.7,33.6-101.9c-4.9-29.3-65.1-54.6-65.1-85.3c0-26.7,45.4-49.3,60.5-74c2.3-3.7,3.9-7.5,4.5-11.3
				c0.4-2.2,0.5-4.4,0.3-6.7c-0.4-5.7-2.2-11.8-4.8-18c0,0,0,0,0,0c-11.1-26.3-36.4-56-29.1-77.1c10-28.8,75.1-32.8,89.6-59
				c14.7-26.6-16.4-83.8,2.3-107.3c19-23.6,81.6-5.5,104.2-25.4c22.7-19.9,12.9-84.4,38.7-100.1c25.7-15.6,78.2,23,106.5,12.2
				c27.9-10.6,41.5-74.5,71.5-80c29.2-5.4,64.5,49.4,95.2,49.4s66-54.7,95.2-49.4c30,5.5,43.5,69.3,71.5,80
				c28.3,10.8,80.8-27.8,106.5-12.2c25.8,15.6,16,80.2,38.7,100.1c22.6,19.9,85.3,1.8,104.2,25.4c18.8,23.4-12.4,80.7,2.3,107.3
				c14.5,26.2,79.6,30.2,89.6,59c7.3,21.1-18.1,50.9-29.1,77.2c-2.6,6.3-4.4,12.3-4.8,18c-0.2,2.3-0.1,4.5,0.3,6.7
				c0.6,3.8,2.2,7.6,4.5,11.3c15.1,24.7,60.5,47.3,60.5,74C4119.1,1478.1,4058.9,1503.4,4054,1532.7z"/>
			<path fill="#39B54A" d="M4087.6,1450.6c-10,28.8-75.1,32.8-89.6,59c-14.7,26.6,16.5,83.9-2.3,107.3
				c-18.9,23.6-81.6,5.5-104.2,25.4c-22.7,19.9-12.9,84.4-38.7,100.1c-25.7,15.6-78.2-23-106.5-12.2c-27.9,10.6-41.5,74.5-71.5,80
				c-29.2,5.4-64.5-49.4-95.2-49.4s-66,54.7-95.2,49.4c-30-5.5-43.5-69.3-71.5-80c-28.3-10.8-80.8,27.8-106.6,12.2
				c-25.8-15.6-16-80.1-38.7-100.1c-22.6-19.9-85.3-1.8-104.2-25.4c-18.8-23.4,12.4-80.7-2.3-107.3c-14.5-26.2-79.6-30.2-89.6-59
				c-7.3-21.1,18.1-50.9,29.1-77.2c2.6-6.3,4.5-12.3,4.8-18c0.2-2.3,0.1-4.5-0.3-6.7c-0.6-3.8-2.2-7.6-4.5-11.3c0,0,0,0,0,0
				c-11.1-26.3-36.4-56-29.1-77.1c10-28.8,75.1-32.8,89.6-59c14.7-26.6-16.4-83.8,2.3-107.3c19-23.6,81.6-5.5,104.2-25.4
				c22.7-19.9,12.9-84.4,38.7-100.1c25.7-15.6,78.2,23,106.5,12.2c27.9-10.6,41.5-74.5,71.5-80c29.2-5.4,64.5,49.4,95.2,49.4
				s66-54.7,95.2-49.4c30,5.5,43.5,69.3,71.5,80c28.3,10.8,80.8-27.8,106.5-12.2c25.8,15.6,16,80.2,38.7,100.1
				c22.6,19.9,85.3,1.8,104.2,25.4c18.8,23.4-12.4,80.7,2.3,107.3c14.5,26.2,79.6,30.2,89.6,59c7.3,21.1-18.1,50.9-29.1,77.2
				c-2.3,3.7-3.9,7.5-4.5,11.3c-0.4,2.2-0.4,4.4-0.3,6.7c0.4,5.7,2.2,11.8,4.8,18C4069.6,1399.7,4095,1429.5,4087.6,1450.6z"/>
		</g>
		<g>
			<ellipse opacity="0.35" fill="#132716" cx="662.9" cy="2821" rx="105.5" ry="25.6"/>
			<path fill="#2C8842" d="M925.3,2565.5c0,0-120.8-38.3-241.2,112.3c-0.3-2.3-0.7-4.6-1.1-6.9c11-38.3,48.7-154.5,119.4-219.5
				c0,0-92.6,22.5-139.6,143.8c-46.9-121.3-139.6-143.8-139.6-143.8c70.7,64.9,108.5,181.2,119.4,219.5c-0.4,2.3-0.7,4.6-1.1,6.9
				c-120.4-150.6-241.2-112.3-241.2-112.3c188.9,90.7,227.9,193,235.9,235.4v20.1h2h49.1h2v-20.1
				C697.4,2758.5,736.4,2656.2,925.3,2565.5z"/>
			<path fill="#246C36" d="M925.3,2636c0,0-120.8-27.8-241.2,81.3c-0.3-1.7-0.7-3.4-1.1-5c11-27.7,48.7-111.9,119.4-158.9
				c0,0-92.6,16.3-139.6,104.1c-46.9-87.8-139.6-104.1-139.6-104.1c70.7,47,108.5,131.2,119.4,158.9c-0.4,1.7-0.7,3.3-1.1,5
				c-120.4-109.1-241.2-81.3-241.2-81.3c188.9,65.7,227.9,139.8,235.9,170.5v14.6h2h49.1h2v-14.6
				C697.4,2775.7,736.4,2701.6,925.3,2636z"/>
		</g>
		<g>
			<ellipse opacity="0.35" fill="#132716" cx="3698" cy="2821" rx="105.5" ry="25.6"/>
			<path fill="#2C8842" d="M3960.4,2565.5c0,0-120.8-38.3-241.2,112.3c-0.3-2.3-0.7-4.6-1.1-6.9c11-38.3,48.7-154.5,119.4-219.5
				c0,0-92.6,22.5-139.6,143.8c-46.9-121.3-139.6-143.8-139.6-143.8c70.7,64.9,108.5,181.2,119.4,219.5c-0.4,2.3-0.7,4.6-1.1,6.9
				c-120.4-150.6-241.2-112.3-241.2-112.3c188.9,90.7,227.9,193,235.9,235.4v20.1h2h49.1h2v-20.1
				C3732.4,2758.5,3771.4,2656.2,3960.4,2565.5z"/>
			<path fill="#246C36" d="M3960.4,2636c0,0-120.8-27.8-241.2,81.3c-0.3-1.7-0.7-3.4-1.1-5c11-27.7,48.7-111.9,119.4-158.9
				c0,0-92.6,16.3-139.6,104.1c-46.9-87.8-139.6-104.1-139.6-104.1c70.7,47,108.5,131.2,119.4,158.9c-0.4,1.7-0.7,3.3-1.1,5
				c-120.4-109.1-241.2-81.3-241.2-81.3c188.9,65.7,227.9,139.8,235.9,170.5v14.6h2h49.1h2v-14.6
				C3732.4,2775.7,3771.4,2701.6,3960.4,2636z"/>
		</g>
		<g>
			<ellipse opacity="0.35" fill="#132716" cx="3332.5" cy="2899.4" rx="105.5" ry="25.6"/>
			<path fill="#2C8842" d="M3595,2643.9c0,0-120.8-38.3-241.2,112.3c-0.3-2.3-0.7-4.6-1.1-6.9c11-38.3,48.7-154.5,119.4-219.5
				c0,0-92.6,22.5-139.6,143.8c-46.9-121.3-139.6-143.8-139.6-143.8c70.7,64.9,108.5,181.2,119.4,219.5c-0.4,2.3-0.7,4.6-1.1,6.9
				c-120.4-150.6-241.2-112.3-241.2-112.3c188.9,90.7,227.9,193,235.9,235.4v20.1h2h49.1h2v-20.1
				C3367,2836.9,3406,2734.6,3595,2643.9z"/>
			<path fill="#246C36" d="M3595,2714.4c0,0-120.8-27.8-241.2,81.3c-0.3-1.7-0.7-3.4-1.1-5c11-27.7,48.7-111.9,119.4-158.9
				c0,0-92.6,16.3-139.6,104.1c-46.9-87.8-139.6-104.1-139.6-104.1c70.7,47,108.5,131.2,119.4,158.9c-0.4,1.7-0.7,3.3-1.1,5
				c-120.4-109.1-241.2-81.3-241.2-81.3c188.9,65.7,227.9,139.8,235.9,170.5v14.6h2h49.1h2v-14.6
				C3367,2854.1,3406,2780.1,3595,2714.4z"/>
		</g>
		<g>
			<ellipse opacity="0.35" fill="#132716" cx="1125.9" cy="2612.5" rx="74.2" ry="18"/>
			<path fill="#2C8842" d="M1310.3,2432.9c0,0-84.9-27-169.5,78.9c-0.2-1.6-0.5-3.3-0.8-4.9c7.7-26.9,34.2-108.6,84-154.2
				c0,0-65.1,15.8-98.1,101.1c-33-85.3-98.1-101.1-98.1-101.1c49.7,45.6,76.3,127.4,84,154.2c-0.3,1.6-0.5,3.2-0.8,4.9
				c-84.6-105.9-169.5-78.9-169.5-78.9c132.8,63.7,160.2,135.6,165.8,165.5v14.1h1.4h34.5h1.4v-14.1
				C1150.1,2568.5,1177.5,2496.6,1310.3,2432.9z"/>
			<path fill="#246C36" d="M1310.3,2482.4c0,0-84.9-19.5-169.5,57.1c-0.2-1.2-0.5-2.4-0.8-3.5c7.7-19.5,34.2-78.6,84-111.7
				c0,0-65.1,11.5-98.1,73.2c-33-61.7-98.1-73.2-98.1-73.2c49.7,33.1,76.3,92.2,84,111.7c-0.3,1.2-0.5,2.3-0.8,3.5
				c-84.6-76.7-169.5-57.1-169.5-57.1c132.8,46.2,160.2,98.2,165.8,119.8v10.2h1.4h34.5h1.4v-10.2
				C1150.1,2580.7,1177.5,2528.6,1310.3,2482.4z"/>
		</g>
		<g>
			<ellipse opacity="0.35" fill="#132716" cx="2070.8" cy="2806.6" rx="56.4" ry="13.7"/>
			<path fill="#2C8842" d="M2211.1,2669.9c0,0-64.6-20.5-129,60c-0.2-1.2-0.4-2.5-0.6-3.7c5.9-20.5,26.1-82.6,63.9-117.3
				c0,0-49.5,12-74.6,76.9c-25.1-64.9-74.6-76.9-74.6-76.9c37.8,34.7,58,96.9,63.9,117.3c-0.2,1.2-0.4,2.5-0.6,3.7
				c-64.4-80.5-129-60-129-60c101,48.5,121.9,103.2,126.1,125.9v10.7h1.1h26.3h1.1v-10.7C2089.2,2773.1,2110.1,2718.4,2211.1,2669.9
				z"/>
			<path fill="#246C36" d="M2211.1,2707.6c0,0-64.6-14.8-129,43.5c-0.2-0.9-0.4-1.8-0.6-2.7c5.9-14.8,26.1-59.8,63.9-85
				c0,0-49.5,8.7-74.6,55.7c-25.1-47-74.6-55.7-74.6-55.7c37.8,25.1,58,70.2,63.9,85c-0.2,0.9-0.4,1.8-0.6,2.7
				c-64.4-58.3-129-43.5-129-43.5c101,35.1,121.9,74.7,126.1,91.2v7.8h1.1h26.3h1.1v-7.8C2089.2,2782.4,2110.1,2742.8,2211.1,2707.6
				z"/>
		</g>
		<g>
			<ellipse opacity="0.35" fill="#132716" cx="2823.7" cy="2714.5" rx="74.2" ry="18"/>
			<path fill="#2C8842" d="M3008.2,2534.9c0,0-84.9-27-169.5,78.9c-0.2-1.6-0.5-3.3-0.8-4.9c7.7-26.9,34.2-108.6,84-154.2
				c0,0-65.1,15.8-98.1,101.1c-33-85.3-98.1-101.1-98.1-101.1c49.7,45.6,76.3,127.4,84,154.2c-0.3,1.6-0.5,3.2-0.8,4.9
				c-84.6-105.9-169.5-78.9-169.5-78.9c132.8,63.7,160.2,135.6,165.8,165.5v14.1h1.4h34.5h1.4v-14.1
				C2848,2670.5,2875.4,2598.6,3008.2,2534.9z"/>
			<path fill="#246C36" d="M3008.2,2584.4c0,0-84.9-19.5-169.5,57.1c-0.2-1.2-0.5-2.4-0.8-3.5c7.7-19.5,34.2-78.6,84-111.7
				c0,0-65.1,11.5-98.1,73.2c-33-61.7-98.1-73.2-98.1-73.2c49.7,33.1,76.3,92.2,84,111.7c-0.3,1.2-0.5,2.3-0.8,3.5
				c-84.6-76.7-169.5-57.1-169.5-57.1c132.8,46.2,160.2,98.2,165.8,119.8v10.2h1.4h34.5h1.4v-10.2
				C2848,2682.6,2875.4,2630.6,3008.2,2584.4z"/>
		</g>
		<g>
			<ellipse opacity="0.35" fill="#132716" cx="1428.9" cy="2917.1" rx="50" ry="12.1"/>
			<path fill="#2C8842" d="M1553.3,2795.9c0,0-57.3-18.2-114.4,53.2c-0.2-1.1-0.3-2.2-0.5-3.3c5.2-18.1,23.1-73.3,56.6-104.1
				c0,0-43.9,10.7-66.2,68.2c-22.3-57.5-66.2-68.2-66.2-68.2c33.5,30.8,51.5,85.9,56.6,104.1c-0.2,1.1-0.3,2.2-0.5,3.3
				c-57.1-71.4-114.4-53.2-114.4-53.2c89.6,43,108.1,91.5,111.9,111.7v9.5h0.9h23.3h0.9v-9.5
				C1445.2,2887.4,1463.7,2838.9,1553.3,2795.9z"/>
			<path fill="#246C36" d="M1553.3,2829.3c0,0-57.3-13.2-114.4,38.6c-0.2-0.8-0.3-1.6-0.5-2.4c5.2-13.1,23.1-53.1,56.6-75.4
				c0,0-43.9,7.7-66.2,49.4c-22.3-41.7-66.2-49.4-66.2-49.4c33.5,22.3,51.5,62.2,56.6,75.4c-0.2,0.8-0.3,1.6-0.5,2.4
				c-57.1-51.7-114.4-38.6-114.4-38.6c89.6,31.1,108.1,66.3,111.9,80.9v6.9h0.9h23.3h0.9v-6.9
				C1445.2,2895.6,1463.7,2860.5,1553.3,2829.3z"/>
		</g>
		<g>
			<ellipse opacity="0.35" fill="#132716" cx="328.9" cy="2861.2" rx="105.5" ry="25.6"/>
			<path fill="#2C8842" d="M591.3,2605.7c0,0-120.8-38.3-241.2,112.3c-0.3-2.3-0.7-4.6-1.1-6.9c11-38.3,48.7-154.5,119.4-219.5
				c0,0-92.6,22.5-139.6,143.8c-46.9-121.3-139.6-143.8-139.6-143.8c70.7,64.9,108.5,181.2,119.4,219.5c-0.4,2.3-0.7,4.6-1.1,6.9
				c-120.4-150.6-241.2-112.3-241.2-112.3c188.9,90.7,227.9,193,235.9,235.4v20.1h2h49.1h2v-20.1
				C363.3,2798.7,402.3,2696.4,591.3,2605.7z"/>
			<path fill="#246C36" d="M591.3,2676.2c0,0-120.8-27.8-241.2,81.3c-0.3-1.7-0.7-3.4-1.1-5c11-27.7,48.7-111.9,119.4-158.9
				c0,0-92.6,16.3-139.6,104.1c-46.9-87.8-139.6-104.1-139.6-104.1c70.7,47,108.5,131.2,119.4,158.9c-0.4,1.7-0.7,3.3-1.1,5
				c-120.4-109.1-241.2-81.3-241.2-81.3c188.9,65.7,227.9,139.8,235.9,170.5v14.6h2h49.1h2v-14.6
				C363.3,2815.9,402.3,2741.9,591.3,2676.2z"/>
		</g>
		<path fill="#F1F2F2" d="M693.8,259.1c0,63.6-51.6,115.1-115.1,115.1H299.4c-51.4,0-93.1-41.7-93.1-93.1
			c0-51.4,41.7-93.1,93.1-93.1c8.2,0,16.2,1.1,23.8,3.1c3.6-35.9,23.6-66.9,52.5-85.3c17.9-11.5,39.2-18.2,62.1-18.2
			c44.8,0,83.6,25.5,102.6,62.8c12-4.2,24.8-6.5,38.3-6.5C642.2,144,693.8,195.5,693.8,259.1z"/>
		<path fill="#F1F2F2" d="M3774.2,362.5c0,37.1-30.1,67.2-67.2,67.2h-162.9c-30,0-54.3-24.3-54.3-54.3c0-30,24.3-54.3,54.3-54.3
			c4.8,0,9.5,0.6,13.9,1.8c2.1-20.9,13.8-39,30.6-49.8c10.4-6.7,22.9-10.6,36.2-10.6c26.1,0,48.7,14.9,59.9,36.7
			c7-2.5,14.5-3.8,22.3-3.8C3744.1,295.3,3774.2,325.4,3774.2,362.5z"/>
		<path fill="#F1F2F2" d="M3373.3,202.5c0,55.9-45.3,101.2-101.2,101.2h-245.4c-45.2,0-81.8-36.6-81.8-81.8
			c0-45.2,36.6-81.8,81.8-81.8c7.2,0,14.3,0.9,21,2.7c3.2-31.5,20.8-58.7,46.1-75c15.7-10.1,34.5-16,54.6-16
			c39.3,0,73.4,22.4,90.2,55.2c10.5-3.7,21.8-5.7,33.6-5.7C3328,101.4,3373.3,146.7,3373.3,202.5z"/>
		<path fill="#F1F2F2" d="M1200,368.7c0,51.1-41.4,92.5-92.5,92.5H883.3c-41.3,0-74.8-33.5-74.8-74.8c0-41.3,33.5-74.8,74.8-74.8
			c6.6,0,13,0.9,19.1,2.5c2.9-28.8,19-53.7,42.1-68.5c14.4-9.2,31.5-14.6,49.9-14.6c35.9,0,67.1,20.5,82.4,50.5
			c9.6-3.4,19.9-5.2,30.7-5.2C1158.6,276.2,1200,317.6,1200,368.7z"/>
	</g>
</g>
</svg>
