<?xml version="1.0" encoding="UTF-8" standalone="yes"?>
<svg fill="none" stroke-linecap="square" stroke-miterlimit="10" version="1.1" viewBox="0.0 0.0 960.0 720.0" xmlns="http://www.w3.org/2000/svg">
 <clipPath id="a">
  <path d="m0 0h960v720h-960v-720z"/>
 </clipPath>
 <g clip-path="url(#a)">
  <path d="m0 0h960v720h-960z" fill="#000" fill-opacity="0"/>
  <path d="m-28-21.667h1022v765.98h-1022z" fill="#93d6f3"/>
  <path d="m-28-21.667h1022v765.98h-1022z" stroke="#000" stroke-linecap="butt" stroke-linejoin="round" stroke-width="2"/>
  <path d="m756.76 534.13c-33.702-30.667-34.739-84.421-2.3149-120.06q33.777-37.129 58.36-82.625 26.263 41.67 61.372 73.617c33.702 30.667 34.739 84.421 2.3149 120.06-32.424 35.642-86.03 39.675-119.73 9.0079z" fill="#2b9af3"/>
  <path d="m305.02 193.93c-33.702-30.667-34.739-84.421-2.315-120.06q33.777-37.129 58.36-82.625 26.263 41.67 61.372 73.617c33.702 30.667 34.739 84.421 2.315 120.06-32.424 35.642-86.03 39.675-119.73 9.0079z" fill="#2b9af3"/>
  <path d="m524.73 193.93c-33.702-30.667-34.739-84.421-2.3149-120.06q33.777-37.129 58.36-82.625 26.263 41.67 61.372 73.617c33.702 30.667 34.739 84.421 2.3149 120.06-32.424 35.642-86.03 39.675-119.73 9.0079z" fill="#2b9af3"/>
  <path d="m639.73 357.08c-33.702-30.667-34.739-84.421-2.3149-120.06q33.777-37.129 58.36-82.625 26.263 41.67 61.372 73.617c33.702 30.667 34.739 84.421 2.3149 120.06-32.424 35.642-86.03 39.675-119.73 9.0079z" fill="#2b9af3"/>
  <path d="m866.89 712.7c-33.702-30.667-34.739-84.421-2.3149-120.06q33.777-37.13 58.36-82.625 26.263 41.67 61.372 73.617c33.702 30.667 34.739 84.421 2.3149 120.06-32.424 35.642-86.03 39.675-119.73 9.0079z" fill="#000" fill-opacity="0"/>
  <path d="m866.89 712.7c-33.702-30.667-34.739-84.421-2.3149-120.06q33.777-37.13 58.36-82.625 26.263 41.67 61.372 73.617c33.702 30.667 34.739 84.421 2.3149 120.06-32.424 35.642-86.03 39.675-119.73 9.0079z" stroke="#2b9af3" stroke-linecap="butt" stroke-linejoin="round" stroke-width="24"/>
  <path d="m654.11 730.71c-35.903-28.058-40.965-81.586-11.307-119.56q30.896-39.558 51.997-86.77 29.31 39.588 66.712 68.817c35.903 28.058 40.965 81.586 11.307 119.56s-82.806 46.011-118.71 17.953z" fill="#2b9af3"/>
  <path d="m524.73 544.88c-33.702-30.667-34.739-84.421-2.3149-120.06q33.777-37.129 58.36-82.625 26.263 41.67 61.372 73.617c33.702 30.667 34.739 84.421 2.3149 120.06-32.424 35.642-86.03 39.675-119.73 9.0079z" fill="#000" fill-opacity="0"/>
  <path d="m524.73 544.88c-33.702-30.667-34.739-84.421-2.3149-120.06q33.777-37.129 58.36-82.625 26.263 41.67 61.372 73.617c33.702 30.667 34.739 84.421 2.3149 120.06-32.424 35.642-86.03 39.675-119.73 9.0079z" stroke="#2b9af3" stroke-linecap="butt" stroke-linejoin="round" stroke-width="24"/>
  <path d="m409.65 370.04c-33.702-30.667-34.739-84.421-2.3149-120.06q33.777-37.129 58.36-82.625 26.263 41.67 61.372 73.617c33.702 30.667 34.739 84.421 2.3149 120.06-32.424 35.642-86.03 39.675-119.73 9.0079z" fill="#2b9af3"/>
  <path d="m337.6 615.3c-33.702-30.667-34.739-84.421-2.3149-120.06q33.777-37.13 58.36-82.625 26.263 41.67 61.372 73.617c33.702 30.667 34.739 84.421 2.315 120.06-32.424 35.642-86.03 39.675-119.73 9.0079z" fill="#2b9af3"/>
  <path d="m-114.14 275.1c-33.702-30.667-34.739-84.421-2.315-120.06q33.777-37.129 58.36-82.625 26.263 41.67 61.372 73.617c33.702 30.667 34.739 84.421 2.315 120.06-32.424 35.642-86.03 39.675-119.73 9.0079z" fill="#2b9af3"/>
  <path d="m98.849 268.27c-30.136-34.181-25.272-87.723 10.866-119.59q37.646-33.197 67.07-75.72 21.535 44.301 52.93 79.908c30.136 34.181 25.272 87.723-10.866 119.59s-89.864 29.992-120-4.189z" fill="#000" fill-opacity="0"/>
  <path d="m98.849 268.27c-30.136-34.181-25.272-87.723 10.866-119.59q37.646-33.197 67.07-75.72 21.535 44.301 52.93 79.908c30.136 34.181 25.272 87.723-10.866 119.59s-89.864 29.992-120-4.189z" stroke="#2b9af3" stroke-linecap="butt" stroke-linejoin="round" stroke-width="24"/>
  <path d="m214.15 431.76c-30.31-34.024-25.72-87.595 10.252-119.65q37.474-33.397 66.679-76.075 21.762 44.19 53.337 79.635c30.31 34.024 25.72 87.595-10.252 119.65-35.972 32.059-89.705 30.465-120.02-3.5591z" fill="#2b9af3"/>
  <path d="m444.22 790.5c-31.937-32.502-29.97-86.235 4.3937-120.02q35.798-35.191 62.882-79.248 23.895 43.074 57.165 76.933c31.937 32.502 29.97 86.235-4.3937 120.02-34.363 33.781-88.11 34.817-120.05 2.3149z" fill="#2b9af3"/>
  <path d="m229.95 807.65c-33.702-30.667-34.739-84.421-2.315-120.06q33.777-37.13 58.36-82.625 26.263 41.671 61.372 73.617c33.702 30.667 34.739 84.421 2.3149 120.06-32.424 35.642-86.03 39.675-119.73 9.0079z" fill="#2b9af3"/>
  <path d="m105.57 626.05c-33.702-30.667-34.739-84.421-2.315-120.06q33.777-37.129 58.36-82.625 26.263 41.671 61.372 73.617c33.702 30.667 34.739 84.421 2.315 120.06-32.424 35.642-86.03 39.675-119.73 9.0079z" fill="#2b9af3"/>
  <path d="m-9.5092 451.21c-33.702-30.667-34.739-84.421-2.315-120.06q33.777-37.129 58.36-82.625 26.263 41.67 61.372 73.617c33.702 30.667 34.739 84.421 2.315 120.06-32.424 35.642-86.03 39.675-119.73 9.0079z" fill="#2b9af3"/>
  <path d="m1078.9 330.68c-33.703-30.667-34.739-84.421-2.3149-120.06q33.777-37.13 58.36-82.625 26.263 41.671 61.372 73.617c33.703 30.667 34.739 84.421 2.3151 120.06-32.424 35.642-86.03 39.675-119.73 9.0079z" fill="#2b9af3"/>
  <path d="m627.12-9.52c-33.702-30.667-34.739-84.421-2.315-120.06q33.777-37.13 58.36-82.625 26.263 41.67 61.372 73.617c33.702 30.667 34.739 84.421 2.3149 120.06-32.424 35.642-86.03 39.675-119.73 9.0079z" fill="#2b9af3"/>
  <path d="m846.83-9.52c-33.702-30.667-34.739-84.421-2.3149-120.06q33.777-37.13 58.36-82.625 26.263 41.67 61.372 73.617c33.702 30.667 34.739 84.421 2.3149 120.06-32.424 35.642-86.03 39.675-119.73 9.0079z" fill="#2b9af3"/>
  <path d="m961.84 153.63c-33.702-30.667-34.739-84.421-2.3149-120.06q33.777-37.129 58.36-82.625 26.263 41.67 61.372 73.617c33.702 30.667 34.739 84.421 2.3149 120.06-32.424 35.642-86.03 39.675-119.73 9.0079z" fill="#2b9af3"/>
  <path d="m756.76 901.66c-33.702-30.667-34.739-84.421-2.3149-120.06q33.777-37.13 58.36-82.625 26.263 41.671 61.372 73.617c33.702 30.667 34.739 84.421 2.3149 120.06-32.424 35.642-86.03 39.675-119.73 9.0079z" fill="#2b9af3"/>
  <path d="m971.21 523.03c-33.702-30.667-34.739-84.421-2.315-120.06q33.777-37.129 58.36-82.625 26.263 41.67 61.372 73.617c33.702 30.667 34.739 84.421 2.3149 120.06-32.424 35.642-86.03 39.675-119.73 9.0079z" fill="#2b9af3"/>
  <path d="m846.83 341.43c-33.702-30.667-34.739-84.421-2.3149-120.06q33.777-37.13 58.36-82.625 26.263 41.67 61.372 73.617c33.702 30.667 34.739 84.421 2.3149 120.06-32.424 35.642-86.03 39.675-119.73 9.0079z" fill="#2b9af3"/>
  <path d="m731.75 166.6c-33.702-30.667-34.739-84.421-2.315-120.06q33.777-37.129 58.36-82.625 26.263 41.67 61.372 73.617c33.702 30.667 34.739 84.421 2.3149 120.06-32.424 35.642-86.03 39.675-119.73 9.0079z" fill="#000" fill-opacity="0"/>
  <path d="m731.75 166.6c-33.702-30.667-34.739-84.421-2.315-120.06q33.777-37.129 58.36-82.625 26.263 41.67 61.372 73.617c33.702 30.667 34.739 84.421 2.3149 120.06-32.424 35.642-86.03 39.675-119.73 9.0079z" stroke="#2b9af3" stroke-linecap="butt" stroke-linejoin="round" stroke-width="24"/>
  <path d="m421.29 20.144c-33.702-30.667-34.739-84.421-2.315-120.06q33.777-37.129 58.36-82.625 26.263 41.67 61.372 73.617c33.702 30.667 34.739 84.421 2.315 120.06-32.424 35.642-86.03 39.675-119.73 9.0079z" fill="#2b9af3"/>
  <path d="m181.83 41.401c-33.702-30.667-34.739-84.421-2.315-120.06q33.777-37.129 58.36-82.625 26.263 41.671 61.372 73.617c33.702 30.667 34.739 84.421 2.3149 120.06-32.424 35.642-86.03 39.675-119.73 9.0079z" fill="#2b9af3"/>
  <path d="m1.3688 101.3c-33.702-30.667-34.739-84.421-2.315-120.06q33.777-37.129 58.36-82.625 26.263 41.67 61.372 73.617c33.702 30.667 34.739 84.421 2.315 120.06-32.424 35.642-86.03 39.675-119.73 9.0079z" fill="#2b9af3"/>
  <path d="m1.3688 807.65c-33.702-30.667-34.739-84.421-2.315-120.06q33.777-37.13 58.36-82.625 26.263 41.671 61.372 73.617c33.702 30.667 34.739 84.421 2.315 120.06-32.424 35.642-86.03 39.675-119.73 9.0079z" fill="#000" fill-opacity="0"/>
  <path d="m1.3688 807.65c-33.702-30.667-34.739-84.421-2.315-120.06q33.777-37.13 58.36-82.625 26.263 41.671 61.372 73.617c33.702 30.667 34.739 84.421 2.315 120.06-32.424 35.642-86.03 39.675-119.73 9.0079z" stroke="#2b9af3" stroke-linecap="butt" stroke-linejoin="round" stroke-width="24"/>
  <path d="m-97.186 632.63c-37.147-26.397-44.634-79.636-16.724-118.91q29.075-40.917 48.016-89.035 31.083 38.214 69.78 65.712c37.147 26.397 44.634 79.636 16.724 118.91-27.91 39.277-80.649 49.719-117.8 23.323z" fill="#2b9af3"/>
 </g>
</svg>
