<?xml version="1.0" encoding="UTF-8"?>
<svg viewBox="0 0 744.09447 1052.362179" xmlns="http://www.w3.org/2000/svg">
 <defs>
  <linearGradient id="b" x1="381.84" x2="376.79" y1="9.8848" y2="1054.9" gradientUnits="userSpaceOnUse">
   <stop stop-color="#f60" offset="0"/>
   <stop offset="1"/>
  </linearGradient>
  <linearGradient id="a" x1="363.65" x2="367.7" y1="541.22" y2="773.56" gradientUnits="userSpaceOnUse">
   <stop stop-color="#f00" offset="0"/>
   <stop stop-color="#f00" stop-opacity="0" offset="1"/>
  </linearGradient>
 </defs>
 <path d="m2.0203 1.8035h749.53v1052.6h-749.53z" fill="url(#b)" fill-rule="evenodd" stroke="#000"/>
 <path d="m519.82 105.79c-5.3014 4.9933-0.13728 15.536-3.7498 20.968-0.57472 0.0565-0.29889 0.177-0.70295 0.39444-4.1957 2.0043-9.6386 3.104-13.913 3.2613-0.20312 8e-3 -1.2756 0.41926-1.9161 0.64455 3.8377 1.0946 7.8434-0.13949 11.169 0.34633 1.235 0.18041 2.1505 0.41465 2.9464 0.6542-2.1241 4.1588 2.0905 4.3563-0.53107 10.259 5.0905-4.0006 4.7122-4.3001 6.1001-8.5273 1.4623 0.17914 1.561-0.63084 4.8106-1.0578 3.4608-0.75551 4.8351-0.7942 12.758-0.70862 2.633 0.0285-0.25229-1.9723 0.79337-2.2874-3.0833-0.0167-4.3333 0.13184-9.5654-1.0445-2.4731-0.55604-3.3597-0.72191-5.4981-1.1201 2.7446-4.3878-5.4095-15.757-2.7012-21.781z" stroke="#000"/>
 <path d="m251.58 181.32c-6.8396 3.0819-12.807 17.195-16.768 23.147-0.63023 0.0619-1.1829 0.19395-1.626 0.43222-4.6009 2.1963-10.569 3.4013-15.257 3.5737-0.22273 8e-3 -1.3988 0.45943-2.1011 0.70631 4.2083 1.1994 8.6008-0.15287 12.248 0.37952 1.3542 0.19769 2.3582 0.45437 3.2309 0.71685-3.1844 5.752-18.402 11.431-21.79 17.557 5.9242-5.0666 22.099-10.345 25.845-16.513 1.6036 0.1963 3.7642 0.16219 7.3276-0.30572 3.7951-0.82788 10.436-2.2013 19.121-1.9713 1.177 0.0312-0.61872-1.4785 0.52793-1.8238-3.3811-0.0183-9.5407 0.65654-15.278-0.63251-2.7119-0.60931-5.3944-1.3031-7.7394-1.7394 3.0096-4.8081 7.5796-18.803 12.26-23.526z" stroke="#000"/>
 <path d="m311.78 162.5c-7.8346 3.522-14.474 11.653-19.012 18.454-0.72192 0.0707-1.355 0.22164-1.8626 0.49393-5.2702 2.5099-12.107 3.887-17.477 4.084-0.25514 9e-3 -1.6023 0.52502-2.4068 0.80716 4.8206 1.3707 9.852-0.1747 14.03 0.4337 1.5512 0.22591 2.7012 0.51924 3.7009 0.8192-3.6476 6.5733-4.427 6.8207-8.3077 13.822 6.786-5.7901 8.6618-5.58 12.952-12.629 1.8368 0.22432 4.3118 0.18534 8.3936-0.34937 4.3472-0.9461 11.954-2.5156 21.903-2.2528 1.3482 0.0357-0.70874-1.6896 0.60472-2.0842-3.8729-0.0209-10.929 0.75028-17.501-0.72283-3.1064-0.6963-6.1792-1.4892-8.8653-1.9878 3.4474-5.4946 8.4864-13.49 13.847-18.888z" stroke="#000"/>
 <path d="m347.47 145.85c-5.7401 5.4171-4.8772 15.334-8.7887 21.226-0.6223 0.0613-1.168 0.19201-1.6055 0.42791-4.5429 2.1744-10.436 3.3674-15.065 3.5381-0.21993 8e-3 -1.3812 0.45485-2.0747 0.69928 4.1553 1.1875 8.4925-0.15134 12.094 0.37573 1.3372 0.19572 2.3284 0.44985 3.1902 0.70971-3.1443 5.6947-0.6074 12.331-3.9526 18.396 5.8496-5.0162 4.9333-10.242 8.6314-16.349 1.5834 0.19435 3.0413-0.85338 6.5598-1.3166 3.7473-0.81965 5.2352-0.86163 13.814-0.76877 2.851 0.0308-0.27318-2.1398 0.85902-2.4816-3.3385-0.0181-4.6919 0.14303-10.357-1.1332-2.6778-0.60323-5.3265-1.2902-7.6418-1.7221 2.9717-4.7602 1.4045-15.067 4.337-21.602z" stroke="#000"/>
 <path d="m391.6 135.02c-4.8926 4.625-7.036 13.957-10.37 18.988-0.53041 0.0523-0.27584 0.16393-0.64875 0.36534-3.8722 1.8565-8.8954 2.875-12.84 3.0208-0.18746 7e-3 -1.1772 0.38834-1.7683 0.59702 3.5418 1.0138 7.2386-0.12922 10.308 0.32079 1.1397 0.1671 1.9846 0.38406 2.7192 0.60593-2.68 4.862 2.5051 12.548 4.5479 18.592-0.48395-7.7454-2.5604-11.774 0.59172-16.988 1.3496 0.16592 1.4407-0.58431 4.4397-0.97982 3.194-0.69978 4.4623-0.73563 11.775-0.65635 2.43 0.0263-0.23284-1.8269 0.7322-2.1187-2.8455-0.0155-3.9992 0.12211-8.8279-0.96749-2.2824-0.51502-4.54-1.1015-6.5136-1.4703 2.5329-4.0641 3.3563-13.729 5.8558-19.309z" stroke="#000"/>
 <path d="m428.82 123.86c-5.5209 5.2168-5.0158 15.581-8.7779 21.255-0.59853 0.059-0.31127 0.18493-0.73207 0.4121-4.3694 2.094-10.038 3.243-14.489 3.4073-0.21154 8e-3 -1.3284 0.43803-1.9954 0.67342 3.9966 1.1436 8.1681-0.14575 11.632 0.36184 1.2861 0.18848 2.2395 0.43322 3.0684 0.68347-3.0242 5.4842-5.1322 14.316-2.827 21.133-0.5461-8.7366 5.0698-13.444 8.6267-19.325 1.5229 0.18716 1.6257-0.65908 5.0098-1.1052 3.6042-0.78934 5.0353-0.82978 13.287-0.74034 2.7421 0.0298-0.26275-2.0606 0.82622-2.3898-3.211-0.0175-4.5128 0.13774-9.9615-1.0913-2.5755-0.58094-5.1231-1.2425-7.35-1.6584 2.8582-4.5842 0.86361-15.323 3.6841-21.617z" stroke="#000"/>
 <path d="m484.8 117.73c-10.384 6.0104-11.608 10.082-16.419 17.295-0.76544 0.0749-0.39807 0.23505-0.93623 0.5238-5.588 2.6617-12.837 4.122-18.53 4.3309-0.27053 0.01-1.6989 0.55677-2.5519 0.85597 5.1113 1.4536 10.446-0.18526 14.876 0.45991 1.6448 0.23958 2.8641 0.55065 3.9241 0.86875-3.8676 6.9707 5.4847 10.75 13.626 13.623-6.5148-7.1745-10.758-3.8488-6.2088-11.324 1.9476 0.23789 2.0791-0.83774 6.407-1.4048 4.6093-1.0033 6.4396-1.0547 16.992-0.94103 3.5068 0.0378-0.33602-2.6192 1.0566-3.0376-4.1065-0.0222-5.7713 0.17507-12.74-1.3871-3.2938-0.73841-6.5518-1.5792-9.3999-2.108 1.5781-6.2406 2.7663-9.7548 9.9048-17.755z" stroke="#000"/>
 <path d="m370.68 261.25c-6.9964-6.5914-0.18118-20.509-4.9487-27.678-0.75848-0.0746-0.39446-0.23364-0.92771-0.52067-5.5372-2.6458-12.72-4.0974-18.362-4.3051-0.26806-0.01-1.6834-0.55344-2.5287-0.85085 5.0648-1.4449 10.351 0.18415 14.74-0.45717 1.6298-0.23815 2.838-0.54736 3.8884-0.86356-2.8032-5.4898 2.7589-5.7505-0.70087-13.542 6.7181 5.281 6.2188 5.6764 8.0505 11.256 1.9299-0.23647 2.0602 0.83274 6.3487 1.3964 4.5674 0.9973 6.381 1.0484 16.838 0.9354 3.4749-0.0376-0.33296 2.6036 1.047 3.0195-4.0691 0.022-5.7188-0.17404-12.624 1.3788-3.2638 0.734-4.4339 0.95296-7.256 1.4785 3.6221 5.792-7.1391 20.8-3.5648 28.752z" stroke="#000"/>
 <path d="m329.08 240.02c-6.8396-3.0819-12.807-17.195-16.768-23.147-0.63023-0.0619-1.1829-0.19395-1.626-0.43222-4.6009-2.1963-10.569-3.4013-15.257-3.5737-0.22273-8e-3 -1.3988-0.45943-2.1011-0.70631 4.2083-1.1994 8.6008 0.15287 12.248-0.37951 1.3542-0.19769 2.3581-0.45437 3.2309-0.71685-3.1844-5.752-11.497-6.0622-14.885-12.189 5.9242 5.0666 15.194 4.9765 18.939 11.145 1.6036-0.1963 3.7642-0.16219 7.3276 0.30572 3.7951 0.82789 10.436 2.2013 19.121 1.9714 1.177-0.0312-0.61872 1.4785 0.52792 1.8238-3.3811 0.0183-9.5407-0.65654-15.278 0.63252-2.7119 0.60931-2.3252 0.53622-4.6701 0.97251 3.0096 4.8081 4.5104 19.57 9.1906 24.293z" stroke="#000"/>
 <path d="m576.05 318.33c-7.8346-3.522-14.474-11.653-19.012-18.454-0.72192-0.0707-1.355-0.22164-1.8626-0.49393-5.2702-2.5099-12.107-3.887-17.477-4.084-0.25514-9e-3 -1.6023-0.52503-2.4068-0.80716 4.8206-1.3707 9.852 0.1747 14.03-0.4337 1.5512-0.22591 2.7012-0.51925 3.7009-0.8192-3.6476-6.5733-4.427-6.8207-8.3077-13.822 6.786 5.7901 8.6618 5.58 12.952 12.629 1.8368-0.22432 4.3118-0.18533 8.3936 0.34938 4.3472 0.94609 11.954 2.5156 21.903 2.2528 1.3482-0.0357-0.70874 1.6896 0.60472 2.0842-3.8729 0.0209-10.929-0.75028-17.501 0.72283-3.1064 0.6963-6.1792 1.4892-8.8653 1.9878 3.4474 5.4946 8.4864 13.49 13.847 18.888z" stroke="#000"/>
 <path d="m512.57 301.24c-5.7401-5.4171-4.8772-15.334-8.7887-21.226-0.6223-0.0613-1.168-0.19202-1.6055-0.42792-4.5429-2.1744-10.436-3.3674-15.065-3.5381-0.21994-8e-3 -1.3812-0.45485-2.0747-0.69928 4.1553-1.1875 8.4925 0.15134 12.094-0.37573 1.3372-0.19572 2.3284-0.44985 3.1902-0.70971-3.1443-5.6947-0.60739-12.331-3.9526-18.396 5.8496 5.0162 4.9333 10.242 8.6314 16.349 1.5834-0.19434 3.0413 0.85338 6.5598 1.3166 3.7473 0.81964 5.2352 0.86163 13.814 0.76877 2.851-0.0308-0.27318 2.1398 0.85902 2.4816-3.3384 0.0181-4.6919-0.14303-10.357 1.1332-2.6778 0.60324-5.3265 1.2902-7.6418 1.7221 2.9717 4.7602 1.4045 15.067 4.337 21.602z" stroke="#000"/>
 <path d="m477.29 283.69c-4.8926-4.625-14.325-15.491-17.659-20.522-0.53042-0.0523-0.27585-0.16393-0.64876-0.36534-3.8722-1.8565-8.8954-2.875-12.84-3.0208-0.18746-7e-3 -1.1772-0.38834-1.7684-0.59702 3.5418-1.0138 7.2386 0.12921 10.308-0.32079 1.1397-0.1671 1.9846-0.38406 2.7192-0.60593-2.68-4.862 5.5743-16.766 10.686-22.043-2.0185 6.9785-8.6988 15.225-5.5467 20.439 1.3496-0.16592 1.4407 0.58431 4.4397 0.97982 3.194 0.69978 4.4623 0.73563 11.775 0.65635 2.43-0.0263-0.23285 1.8269 0.73219 2.1187-2.8455 0.0155-3.9992-0.12211-8.8279 0.96749-2.2824 0.51502-4.54 1.1015-6.5136 1.4703 2.5329 4.0641 10.646 15.263 13.145 20.843z" stroke="#000"/>
 <path d="m422.06 268.77c-5.5209-5.2168-5.0158-15.581-8.7779-21.255-0.59853-0.059-0.31126-0.18492-0.73207-0.41209-4.3694-2.094-10.038-3.243-14.489-3.4073-0.21154-8e-3 -1.3284-0.43803-1.9954-0.67343 3.9966-1.1436 8.1681 0.14576 11.632-0.36184 1.2861-0.18848 2.2395-0.43321 3.0684-0.68347-3.0242-5.4842-5.1322-14.316-2.827-21.133-0.54609 8.7366 5.0698 13.444 8.6267 19.325 1.5229-0.18716 1.6257 0.65908 5.0098 1.1052 3.6042 0.78933 5.0353 0.82978 13.287 0.74034 2.7421-0.0298-0.26274 2.0606 0.82622 2.3898-3.211 0.0175-4.5128-0.13774-9.9615 1.0913-2.5755 0.58094-5.1231 1.2425-7.35 1.6584 2.8582 4.5842 0.8636 15.324 3.6841 21.617z" stroke="#000"/>
 <path d="m640.31 335.11c-10.384-6.0104-16.595-5.097-21.407-12.31-0.76544-0.0749-0.39807-0.23504-0.93623-0.5238-5.588-2.6617-12.837-4.122-18.53-4.3309-0.27053-0.01-1.6989-0.55677-2.5519-0.85597 5.1113-1.4536 10.446 0.18527 14.876-0.45991 1.6448-0.23958 2.8641-0.55065 3.9241-0.86875-3.8676-6.9707-1.8047-17.652 6.3365-20.525-6.5148 7.1745-3.4683 10.751 1.0806 18.226 1.9476-0.23789 2.0791 0.83774 6.407 1.4048 4.6093 1.0033 6.4396 1.0547 16.992 0.94103 3.5068-0.0378-0.33602 2.6192 1.0566 3.0376-4.1065 0.0222-5.7713-0.17507-12.74 1.3871-3.2938 0.73841-6.5519 1.5793-9.3999 2.108 1.5781 6.2406 7.7537 4.7699 14.892 12.77z" stroke="#000"/>
 <path d="m521.24 688.71a153.54 153.54 0 1 1 -307.09 0 153.54 153.54 0 1 1 307.09 0z" fill="url(#a)" fill-rule="evenodd"/>
</svg>
