<?xml version="1.0" encoding="UTF-8"?>
<svg version="1.1" viewBox="0 0 744.09 1052.4" xmlns="http://www.w3.org/2000/svg">
 <g fill="#fff" stroke="#000" stroke-opacity=".75132">
  <path transform="translate(402.08 3.8406)" d="m64.286 320.93c-4e-6 1e-5 -1.2e-5 0-1.5e-5 -1e-5 -6.9e-5 -1.2e-4 1.59e-4 -2.3e-4 2.37e-4 -2.5e-4 7.7e-4 -1.8e-4 0.0012 8.8e-4 0.0012 1e-3 6.2e-5 3e-3 -0.0032 4e-3 -0.0054 3e-3 -0.0068-7.8e-4 -0.0091-9e-3 -0.0079-0.0146 0.0031-0.0144 0.02055-0.0189 0.03305-0.0153 0.02728 8e-3 0.03516 0.0413 0.02665 0.0655-0.01664 0.0473-0.07514 0.0601-0.11785 0.0431-0.07699-0.0307-0.09666-0.12708-0.06582-0.19741 0.05213-0.1189 0.20278-0.14791 0.3125-0.0962 0.17615 0.083 0.21747 0.3088 0.13564 0.4727-0.1259 0.25219-0.4526 0.30937-0.68886 0.18575-0.35085-0.18357-0.42804-0.64248-0.2482-0.97304 0.25914-0.47633 0.88766-0.57838 1.3386-0.32481 0.63322 0.35606 0.7657 1.1983 0.41749 1.8002-0.47808 0.82649-1.5854 0.99575-2.3739 0.52831-1.0615-0.62929-1.2748-2.0609-0.65942-3.0768 0.81409-1.3441 2.6377-1.6094 3.9276-0.81313 1.6804 1.0373 2.0067 3.3298 0.99185 4.9464-1.3039 2.0769-4.1519 2.4743-6.1543 1.1981-2.5408-1.6193-3.0203-5.1197-1.4346-7.5741 1.9894-3.0793 6.2501-3.6531 9.2299-1.7041 3.7002 2.4203 4.3817 7.5608 2.0095 11.147-2.9183 4.4119-9.0704 5.2156-13.353 2.3539-5.2229-3.4904-6.1648-10.799-2.7404-15.875 4.1436-6.1424 12.766-7.2395 18.743-3.1724 7.1797 4.8855 8.4507 14.995 3.6532 21.989-5.724 8.3449-17.508 9.8098-25.645 4.1864-9.6483-6.6673-11.329-20.328-4.7757-29.745 7.7239-11.101 23.48-13.02 34.325-5.425 12.713 8.9029 14.895 26.99 6.1381 39.421-10.214 14.498-30.886 16.97-45.072 6.9192-16.466-11.666-19.256-35.194-7.7724-51.317 13.269-18.631 39.943-21.769 58.199-8.7022 21.005 15.034 24.523 45.165 9.7129 65.76-16.972 23.602-50.889 27.533-74.044 10.809-26.436-19.093-30.817-57.147-11.996-83.098 21.41-29.521 63.974-34.389 92.968-13.278 32.872 23.934 38.267 71.402 14.66 103.7-26.678 36.505-79.468 42.468-115.35 16.148-40.432-29.654-47.01-88.208-17.745-127.97 32.875-44.674 97.658-51.911 141.62-19.46 49.245 36.355 57.191 107.86 21.296 156.33-40.108 54.163-118.85 62.869-172.18 23.259-9.7694-7.2554-18.496-15.898-25.867-25.579" stroke-width="5"/>
  <path transform="translate(217.65 74.379)" d="m64.286 320.93c-4e-6 1e-5 -1.2e-5 0-1.5e-5 -1e-5 -6.9e-5 -1.2e-4 1.59e-4 -2.3e-4 2.37e-4 -2.5e-4 7.7e-4 -1.8e-4 0.0012 8.8e-4 0.0012 1e-3 6.2e-5 3e-3 -0.0032 4e-3 -0.0054 3e-3 -0.0068-7.8e-4 -0.0091-9e-3 -0.0079-0.0146 0.0031-0.0144 0.02055-0.0189 0.03305-0.0153 0.02728 8e-3 0.03516 0.0413 0.02665 0.0655-0.01664 0.0473-0.07514 0.0601-0.11785 0.0431-0.07699-0.0307-0.09666-0.12708-0.06582-0.19741 0.05213-0.1189 0.20278-0.14791 0.3125-0.0962 0.17615 0.083 0.21747 0.3088 0.13564 0.4727-0.1259 0.25219-0.4526 0.30937-0.68886 0.18575-0.35085-0.18357-0.42804-0.64248-0.2482-0.97304 0.25914-0.47633 0.88766-0.57838 1.3386-0.32481 0.63322 0.35606 0.7657 1.1983 0.41749 1.8002-0.47808 0.82649-1.5854 0.99575-2.3739 0.52831-1.0615-0.62929-1.2748-2.0609-0.65942-3.0768 0.81409-1.3441 2.6377-1.6094 3.9276-0.81313 1.6804 1.0373 2.0067 3.3298 0.99185 4.9464-1.3039 2.0769-4.1519 2.4743-6.1543 1.1981-2.5408-1.6193-3.0203-5.1197-1.4346-7.5741 1.9894-3.0793 6.2501-3.6531 9.2299-1.7041 3.7002 2.4203 4.3817 7.5608 2.0095 11.147-2.9183 4.4119-9.0704 5.2156-13.353 2.3539-5.2229-3.4904-6.1648-10.799-2.7404-15.875 4.1436-6.1424 12.766-7.2395 18.743-3.1724 7.1797 4.8855 8.4507 14.995 3.6532 21.989-5.724 8.3449-17.508 9.8098-25.645 4.1864-9.6483-6.6673-11.329-20.328-4.7757-29.745 7.7239-11.101 23.48-13.02 34.325-5.425 12.713 8.9029 14.895 26.99 6.1381 39.421-10.214 14.498-30.886 16.97-45.072 6.9192-16.466-11.666-19.256-35.194-7.7724-51.317 13.269-18.631 39.943-21.769 58.199-8.7022 21.005 15.034 24.523 45.165 9.7129 65.76-16.972 23.602-50.889 27.533-74.044 10.809-26.436-19.093-30.817-57.147-11.996-83.098 21.41-29.521 63.974-34.389 92.968-13.278 32.872 23.934 38.267 71.402 14.66 103.7-26.678 36.505-79.468 42.468-115.35 16.148-40.432-29.654-47.01-88.208-17.745-127.97 32.875-44.674 97.658-51.911 141.62-19.46 49.245 36.355 57.191 107.86 21.296 156.33-40.108 54.163-118.85 62.869-172.18 23.259-9.7694-7.2554-18.496-15.898-25.867-25.579" stroke-width="5"/>
  <path transform="matrix(.33431 0 0 .2847 248.1 170.71)" d="m64.286 320.93c-4e-6 1e-5 -1.2e-5 0-1.5e-5 -1e-5 -6.9e-5 -1.2e-4 1.59e-4 -2.3e-4 2.37e-4 -2.5e-4 7.7e-4 -1.8e-4 0.0012 8.8e-4 0.0012 1e-3 6.2e-5 3e-3 -0.0032 4e-3 -0.0054 3e-3 -0.0068-7.8e-4 -0.0091-9e-3 -0.0079-0.0146 0.0031-0.0144 0.02055-0.0189 0.03305-0.0153 0.02728 8e-3 0.03516 0.0413 0.02665 0.0655-0.01664 0.0473-0.07514 0.0601-0.11785 0.0431-0.07699-0.0307-0.09666-0.12708-0.06582-0.19741 0.05213-0.1189 0.20278-0.14791 0.3125-0.0962 0.17615 0.083 0.21747 0.3088 0.13564 0.4727-0.1259 0.25219-0.4526 0.30937-0.68886 0.18575-0.35085-0.18357-0.42804-0.64248-0.2482-0.97304 0.25914-0.47633 0.88766-0.57838 1.3386-0.32481 0.63322 0.35606 0.7657 1.1983 0.41749 1.8002-0.47808 0.82649-1.5854 0.99575-2.3739 0.52831-1.0615-0.62929-1.2748-2.0609-0.65942-3.0768 0.81409-1.3441 2.6377-1.6094 3.9276-0.81313 1.6804 1.0373 2.0067 3.3298 0.99185 4.9464-1.3039 2.0769-4.1519 2.4743-6.1543 1.1981-2.5408-1.6193-3.0203-5.1197-1.4346-7.5741 1.9894-3.0793 6.2501-3.6531 9.2299-1.7041 3.7002 2.4203 4.3817 7.5608 2.0095 11.147-2.9183 4.4119-9.0704 5.2156-13.353 2.3539-5.2229-3.4904-6.1648-10.799-2.7404-15.875 4.1436-6.1424 12.766-7.2395 18.743-3.1724 7.1797 4.8855 8.4507 14.995 3.6532 21.989-5.724 8.3449-17.508 9.8098-25.645 4.1864-9.6483-6.6673-11.329-20.328-4.7757-29.745 7.7239-11.101 23.48-13.02 34.325-5.425 12.713 8.9029 14.895 26.99 6.1381 39.421-10.214 14.498-30.886 16.97-45.072 6.9192-16.466-11.666-19.256-35.194-7.7724-51.317 13.269-18.631 39.943-21.769 58.199-8.7022 21.005 15.034 24.523 45.165 9.7129 65.76-16.972 23.602-50.889 27.533-74.044 10.809-26.436-19.093-30.817-57.147-11.996-83.098 21.41-29.521 63.974-34.389 92.968-13.278 32.872 23.934 38.267 71.402 14.66 103.7-26.678 36.505-79.468 42.468-115.35 16.148-40.432-29.654-47.01-88.208-17.745-127.97 32.875-44.674 97.658-51.911 141.62-19.46 49.245 36.355 57.191 107.86 21.296 156.33-40.108 54.163-118.85 62.869-172.18 23.259-9.7694-7.2554-18.496-15.898-25.867-25.579" stroke-width="12.966"/>
  <path transform="matrix(.33431 0 0 .2847 186.44 190.79)" d="m64.286 320.93c-4e-6 1e-5 -1.2e-5 0-1.5e-5 -1e-5 -6.9e-5 -1.2e-4 1.59e-4 -2.3e-4 2.37e-4 -2.5e-4 7.7e-4 -1.8e-4 0.0012 8.8e-4 0.0012 1e-3 6.2e-5 3e-3 -0.0032 4e-3 -0.0054 3e-3 -0.0068-7.8e-4 -0.0091-9e-3 -0.0079-0.0146 0.0031-0.0144 0.02055-0.0189 0.03305-0.0153 0.02728 8e-3 0.03516 0.0413 0.02665 0.0655-0.01664 0.0473-0.07514 0.0601-0.11785 0.0431-0.07699-0.0307-0.09666-0.12708-0.06582-0.19741 0.05213-0.1189 0.20278-0.14791 0.3125-0.0962 0.17615 0.083 0.21747 0.3088 0.13564 0.4727-0.1259 0.25219-0.4526 0.30937-0.68886 0.18575-0.35085-0.18357-0.42804-0.64248-0.2482-0.97304 0.25914-0.47633 0.88766-0.57838 1.3386-0.32481 0.63322 0.35606 0.7657 1.1983 0.41749 1.8002-0.47808 0.82649-1.5854 0.99575-2.3739 0.52831-1.0615-0.62929-1.2748-2.0609-0.65942-3.0768 0.81409-1.3441 2.6377-1.6094 3.9276-0.81313 1.6804 1.0373 2.0067 3.3298 0.99185 4.9464-1.3039 2.0769-4.1519 2.4743-6.1543 1.1981-2.5408-1.6193-3.0203-5.1197-1.4346-7.5741 1.9894-3.0793 6.2501-3.6531 9.2299-1.7041 3.7002 2.4203 4.3817 7.5608 2.0095 11.147-2.9183 4.4119-9.0704 5.2156-13.353 2.3539-5.2229-3.4904-6.1648-10.799-2.7404-15.875 4.1436-6.1424 12.766-7.2395 18.743-3.1724 7.1797 4.8855 8.4507 14.995 3.6532 21.989-5.724 8.3449-17.508 9.8098-25.645 4.1864-9.6483-6.6673-11.329-20.328-4.7757-29.745 7.7239-11.101 23.48-13.02 34.325-5.425 12.713 8.9029 14.895 26.99 6.1381 39.421-10.214 14.498-30.886 16.97-45.072 6.9192-16.466-11.666-19.256-35.194-7.7724-51.317 13.269-18.631 39.943-21.769 58.199-8.7022 21.005 15.034 24.523 45.165 9.7129 65.76-16.972 23.602-50.889 27.533-74.044 10.809-26.436-19.093-30.817-57.147-11.996-83.098 21.41-29.521 63.974-34.389 92.968-13.278 32.872 23.934 38.267 71.402 14.66 103.7-26.678 36.505-79.468 42.468-115.35 16.148-40.432-29.654-47.01-88.208-17.745-127.97 32.875-44.674 97.658-51.911 141.62-19.46 49.245 36.355 57.191 107.86 21.296 156.33-40.108 54.163-118.85 62.869-172.18 23.259-9.7694-7.2554-18.496-15.898-25.867-25.579" stroke-width="12.966"/>
  <path d="m64.286 320.93c-4e-6 1e-5 -1.2e-5 0-1.5e-5 -1e-5 -6.9e-5 -1.2e-4 1.59e-4 -2.3e-4 2.37e-4 -2.5e-4 7.7e-4 -1.8e-4 0.0012 8.8e-4 0.0012 1e-3 6.2e-5 3e-3 -0.0032 4e-3 -0.0054 3e-3 -0.0068-7.8e-4 -0.0091-9e-3 -0.0079-0.0146 0.0031-0.0144 0.02055-0.0189 0.03305-0.0153 0.02728 8e-3 0.03516 0.0413 0.02665 0.0655-0.01664 0.0473-0.07514 0.0601-0.11785 0.0431-0.07699-0.0307-0.09666-0.12708-0.06582-0.19741 0.05213-0.1189 0.20278-0.14791 0.3125-0.0962 0.17615 0.083 0.21747 0.3088 0.13564 0.4727-0.1259 0.25219-0.4526 0.30937-0.68886 0.18575-0.35085-0.18357-0.42804-0.64248-0.2482-0.97304 0.25914-0.47633 0.88766-0.57838 1.3386-0.32481 0.63322 0.35606 0.7657 1.1983 0.41749 1.8002-0.47808 0.82649-1.5854 0.99575-2.3739 0.52831-1.0615-0.62929-1.2748-2.0609-0.65942-3.0768 0.81409-1.3441 2.6377-1.6094 3.9276-0.81313 1.6804 1.0373 2.0067 3.3298 0.99185 4.9464-1.3039 2.0769-4.1519 2.4743-6.1543 1.1981-2.5408-1.6193-3.0203-5.1197-1.4346-7.5741 1.9894-3.0793 6.2501-3.6531 9.2299-1.7041 3.7002 2.4203 4.3817 7.5608 2.0095 11.147-2.9183 4.4119-9.0704 5.2156-13.353 2.3539-5.2229-3.4904-6.1648-10.799-2.7404-15.875 4.1436-6.1424 12.766-7.2395 18.743-3.1724 7.1797 4.8855 8.4507 14.995 3.6532 21.989-5.724 8.3449-17.508 9.8098-25.645 4.1864-9.6483-6.6673-11.329-20.328-4.7757-29.745 7.7239-11.101 23.48-13.02 34.325-5.425 12.713 8.9029 14.895 26.99 6.1381 39.421-10.214 14.498-30.886 16.97-45.072 6.9192-16.466-11.666-19.256-35.194-7.7724-51.317 13.269-18.631 39.943-21.769 58.199-8.7022 21.005 15.034 24.523 45.165 9.7129 65.76-16.972 23.602-50.889 27.533-74.044 10.809-26.436-19.093-30.817-57.147-11.996-83.098 21.41-29.521 63.974-34.389 92.968-13.278 32.872 23.934 38.267 71.402 14.66 103.7-26.678 36.505-79.468 42.468-115.35 16.148-40.432-29.654-47.01-88.208-17.745-127.97 32.875-44.674 97.658-51.911 141.62-19.46 49.245 36.355 57.191 107.86 21.296 156.33-40.108 54.163-118.85 62.869-172.18 23.259-9.7694-7.2554-18.496-15.898-25.867-25.579" stroke-width="5"/>
  <path transform="translate(-184.42 70.538)" d="m64.286 320.93c-4e-6 1e-5 -1.2e-5 0-1.5e-5 -1e-5 -6.9e-5 -1.2e-4 1.59e-4 -2.3e-4 2.37e-4 -2.5e-4 7.7e-4 -1.8e-4 0.0012 8.8e-4 0.0012 1e-3 6.2e-5 3e-3 -0.0032 4e-3 -0.0054 3e-3 -0.0068-7.8e-4 -0.0091-9e-3 -0.0079-0.0146 0.0031-0.0144 0.02055-0.0189 0.03305-0.0153 0.02728 8e-3 0.03516 0.0413 0.02665 0.0655-0.01664 0.0473-0.07514 0.0601-0.11785 0.0431-0.07699-0.0307-0.09666-0.12708-0.06582-0.19741 0.05213-0.1189 0.20278-0.14791 0.3125-0.0962 0.17615 0.083 0.21747 0.3088 0.13564 0.4727-0.1259 0.25219-0.4526 0.30937-0.68886 0.18575-0.35085-0.18357-0.42804-0.64248-0.2482-0.97304 0.25914-0.47633 0.88766-0.57838 1.3386-0.32481 0.63322 0.35606 0.7657 1.1983 0.41749 1.8002-0.47808 0.82649-1.5854 0.99575-2.3739 0.52831-1.0615-0.62929-1.2748-2.0609-0.65942-3.0768 0.81409-1.3441 2.6377-1.6094 3.9276-0.81313 1.6804 1.0373 2.0067 3.3298 0.99185 4.9464-1.3039 2.0769-4.1519 2.4743-6.1543 1.1981-2.5408-1.6193-3.0203-5.1197-1.4346-7.5741 1.9894-3.0793 6.2501-3.6531 9.2299-1.7041 3.7002 2.4203 4.3817 7.5608 2.0095 11.147-2.9183 4.4119-9.0704 5.2156-13.353 2.3539-5.2229-3.4904-6.1648-10.799-2.7404-15.875 4.1436-6.1424 12.766-7.2395 18.743-3.1724 7.1797 4.8855 8.4507 14.995 3.6532 21.989-5.724 8.3449-17.508 9.8098-25.645 4.1864-9.6483-6.6673-11.329-20.328-4.7757-29.745 7.7239-11.101 23.48-13.02 34.325-5.425 12.713 8.9029 14.895 26.99 6.1381 39.421-10.214 14.498-30.886 16.97-45.072 6.9192-16.466-11.666-19.256-35.194-7.7724-51.317 13.269-18.631 39.943-21.769 58.199-8.7022 21.005 15.034 24.523 45.165 9.7129 65.76-16.972 23.602-50.889 27.533-74.044 10.809-26.436-19.093-30.817-57.147-11.996-83.098 21.41-29.521 63.974-34.389 92.968-13.278 32.872 23.934 38.267 71.402 14.66 103.7-26.678 36.505-79.468 42.468-115.35 16.148-40.432-29.654-47.01-88.208-17.745-127.97 32.875-44.674 97.658-51.911 141.62-19.46 49.245 36.355 57.191 107.86 21.296 156.33-40.108 54.163-118.85 62.869-172.18 23.259-9.7694-7.2554-18.496-15.898-25.867-25.579" stroke-width="5"/>
  <path transform="matrix(.80146 0 0 .76618 113.27 140.39)" d="m64.286 320.93c-4e-6 1e-5 -1.2e-5 0-1.5e-5 -1e-5 -6.9e-5 -1.2e-4 1.59e-4 -2.3e-4 2.37e-4 -2.5e-4 7.7e-4 -1.8e-4 0.0012 8.8e-4 0.0012 1e-3 6.2e-5 3e-3 -0.0032 4e-3 -0.0054 3e-3 -0.0068-7.8e-4 -0.0091-9e-3 -0.0079-0.0146 0.0031-0.0144 0.02055-0.0189 0.03305-0.0153 0.02728 8e-3 0.03516 0.0413 0.02665 0.0655-0.01664 0.0473-0.07514 0.0601-0.11785 0.0431-0.07699-0.0307-0.09666-0.12708-0.06582-0.19741 0.05213-0.1189 0.20278-0.14791 0.3125-0.0962 0.17615 0.083 0.21747 0.3088 0.13564 0.4727-0.1259 0.25219-0.4526 0.30937-0.68886 0.18575-0.35085-0.18357-0.42804-0.64248-0.2482-0.97304 0.25914-0.47633 0.88766-0.57838 1.3386-0.32481 0.63322 0.35606 0.7657 1.1983 0.41749 1.8002-0.47808 0.82649-1.5854 0.99575-2.3739 0.52831-1.0615-0.62929-1.2748-2.0609-0.65942-3.0768 0.81409-1.3441 2.6377-1.6094 3.9276-0.81313 1.6804 1.0373 2.0067 3.3298 0.99185 4.9464-1.3039 2.0769-4.1519 2.4743-6.1543 1.1981-2.5408-1.6193-3.0203-5.1197-1.4346-7.5741 1.9894-3.0793 6.2501-3.6531 9.2299-1.7041 3.7002 2.4203 4.3817 7.5608 2.0095 11.147-2.9183 4.4119-9.0704 5.2156-13.353 2.3539-5.2229-3.4904-6.1648-10.799-2.7404-15.875 4.1436-6.1424 12.766-7.2395 18.743-3.1724 7.1797 4.8855 8.4507 14.995 3.6532 21.989-5.724 8.3449-17.508 9.8098-25.645 4.1864-9.6483-6.6673-11.329-20.328-4.7757-29.745 7.7239-11.101 23.48-13.02 34.325-5.425 12.713 8.9029 14.895 26.99 6.1381 39.421-10.214 14.498-30.886 16.97-45.072 6.9192-16.466-11.666-19.256-35.194-7.7724-51.317 13.269-18.631 39.943-21.769 58.199-8.7022 21.005 15.034 24.523 45.165 9.7129 65.76-16.972 23.602-50.889 27.533-74.044 10.809-26.436-19.093-30.817-57.147-11.996-83.098 21.41-29.521 63.974-34.389 92.968-13.278 32.872 23.934 38.267 71.402 14.66 103.7-26.678 36.505-79.468 42.468-115.35 16.148-40.432-29.654-47.01-88.208-17.745-127.97 32.875-44.674 97.658-51.911 141.62-19.46 49.245 36.355 57.191 107.86 21.296 156.33-40.108 54.163-118.85 62.869-172.18 23.259-9.7694-7.2554-18.496-15.898-25.867-25.579" stroke-width="5"/>
  <path transform="matrix(.80146 0 0 .76618 -34.537 194.44)" d="m64.286 320.93c-4e-6 1e-5 -1.2e-5 0-1.5e-5 -1e-5 -6.9e-5 -1.2e-4 1.59e-4 -2.3e-4 2.37e-4 -2.5e-4 7.7e-4 -1.8e-4 0.0012 8.8e-4 0.0012 1e-3 6.2e-5 3e-3 -0.0032 4e-3 -0.0054 3e-3 -0.0068-7.8e-4 -0.0091-9e-3 -0.0079-0.0146 0.0031-0.0144 0.02055-0.0189 0.03305-0.0153 0.02728 8e-3 0.03516 0.0413 0.02665 0.0655-0.01664 0.0473-0.07514 0.0601-0.11785 0.0431-0.07699-0.0307-0.09666-0.12708-0.06582-0.19741 0.05213-0.1189 0.20278-0.14791 0.3125-0.0962 0.17615 0.083 0.21747 0.3088 0.13564 0.4727-0.1259 0.25219-0.4526 0.30937-0.68886 0.18575-0.35085-0.18357-0.42804-0.64248-0.2482-0.97304 0.25914-0.47633 0.88766-0.57838 1.3386-0.32481 0.63322 0.35606 0.7657 1.1983 0.41749 1.8002-0.47808 0.82649-1.5854 0.99575-2.3739 0.52831-1.0615-0.62929-1.2748-2.0609-0.65942-3.0768 0.81409-1.3441 2.6377-1.6094 3.9276-0.81313 1.6804 1.0373 2.0067 3.3298 0.99185 4.9464-1.3039 2.0769-4.1519 2.4743-6.1543 1.1981-2.5408-1.6193-3.0203-5.1197-1.4346-7.5741 1.9894-3.0793 6.2501-3.6531 9.2299-1.7041 3.7002 2.4203 4.3817 7.5608 2.0095 11.147-2.9183 4.4119-9.0704 5.2156-13.353 2.3539-5.2229-3.4904-6.1648-10.799-2.7404-15.875 4.1436-6.1424 12.766-7.2395 18.743-3.1724 7.1797 4.8855 8.4507 14.995 3.6532 21.989-5.724 8.3449-17.508 9.8098-25.645 4.1864-9.6483-6.6673-11.329-20.328-4.7757-29.745 7.7239-11.101 23.48-13.02 34.325-5.425 12.713 8.9029 14.895 26.99 6.1381 39.421-10.214 14.498-30.886 16.97-45.072 6.9192-16.466-11.666-19.256-35.194-7.7724-51.317 13.269-18.631 39.943-21.769 58.199-8.7022 21.005 15.034 24.523 45.165 9.7129 65.76-16.972 23.602-50.889 27.533-74.044 10.809-26.436-19.093-30.817-57.147-11.996-83.098 21.41-29.521 63.974-34.389 92.968-13.278 32.872 23.934 38.267 71.402 14.66 103.7-26.678 36.505-79.468 42.468-115.35 16.148-40.432-29.654-47.01-88.208-17.745-127.97 32.875-44.674 97.658-51.911 141.62-19.46 49.245 36.355 57.191 107.86 21.296 156.33-40.108 54.163-118.85 62.869-172.18 23.259-9.7694-7.2554-18.496-15.898-25.867-25.579" stroke-width="5"/>
  <path transform="translate(47.789 209.55)" d="m64.286 320.93c-4e-6 1e-5 -1.2e-5 0-1.5e-5 -1e-5 -6.9e-5 -1.2e-4 1.59e-4 -2.3e-4 2.37e-4 -2.5e-4 7.7e-4 -1.8e-4 0.0012 8.8e-4 0.0012 1e-3 6.2e-5 3e-3 -0.0032 4e-3 -0.0054 3e-3 -0.0068-7.8e-4 -0.0091-9e-3 -0.0079-0.0146 0.0031-0.0144 0.02055-0.0189 0.03305-0.0153 0.02728 8e-3 0.03516 0.0413 0.02665 0.0655-0.01664 0.0473-0.07514 0.0601-0.11785 0.0431-0.07699-0.0307-0.09666-0.12708-0.06582-0.19741 0.05213-0.1189 0.20278-0.14791 0.3125-0.0962 0.17615 0.083 0.21747 0.3088 0.13564 0.4727-0.1259 0.25219-0.4526 0.30937-0.68886 0.18575-0.35085-0.18357-0.42804-0.64248-0.2482-0.97304 0.25914-0.47633 0.88766-0.57838 1.3386-0.32481 0.63322 0.35606 0.7657 1.1983 0.41749 1.8002-0.47808 0.82649-1.5854 0.99575-2.3739 0.52831-1.0615-0.62929-1.2748-2.0609-0.65942-3.0768 0.81409-1.3441 2.6377-1.6094 3.9276-0.81313 1.6804 1.0373 2.0067 3.3298 0.99185 4.9464-1.3039 2.0769-4.1519 2.4743-6.1543 1.1981-2.5408-1.6193-3.0203-5.1197-1.4346-7.5741 1.9894-3.0793 6.2501-3.6531 9.2299-1.7041 3.7002 2.4203 4.3817 7.5608 2.0095 11.147-2.9183 4.4119-9.0704 5.2156-13.353 2.3539-5.2229-3.4904-6.1648-10.799-2.7404-15.875 4.1436-6.1424 12.766-7.2395 18.743-3.1724 7.1797 4.8855 8.4507 14.995 3.6532 21.989-5.724 8.3449-17.508 9.8098-25.645 4.1864-9.6483-6.6673-11.329-20.328-4.7757-29.745 7.7239-11.101 23.48-13.02 34.325-5.425 12.713 8.9029 14.895 26.99 6.1381 39.421-10.214 14.498-30.886 16.97-45.072 6.9192-16.466-11.666-19.256-35.194-7.7724-51.317 13.269-18.631 39.943-21.769 58.199-8.7022 21.005 15.034 24.523 45.165 9.7129 65.76-16.972 23.602-50.889 27.533-74.044 10.809-26.436-19.093-30.817-57.147-11.996-83.098 21.41-29.521 63.974-34.389 92.968-13.278 32.872 23.934 38.267 71.402 14.66 103.7-26.678 36.505-79.468 42.468-115.35 16.148-40.432-29.654-47.01-88.208-17.745-127.97 32.875-44.674 97.658-51.911 141.62-19.46 49.245 36.355 57.191 107.86 21.296 156.33-40.108 54.163-118.85 62.869-172.18 23.259-9.7694-7.2554-18.496-15.898-25.867-25.579" stroke-width="5"/>
  <path transform="matrix(.23122 0 0 .21101 83.238 550.62)" d="m64.286 320.93c-4e-6 1e-5 -1.2e-5 0-1.5e-5 -1e-5 -6.9e-5 -1.2e-4 1.59e-4 -2.3e-4 2.37e-4 -2.5e-4 7.7e-4 -1.8e-4 0.0012 8.8e-4 0.0012 1e-3 6.2e-5 3e-3 -0.0032 4e-3 -0.0054 3e-3 -0.0068-7.8e-4 -0.0091-9e-3 -0.0079-0.0146 0.0031-0.0144 0.02055-0.0189 0.03305-0.0153 0.02728 8e-3 0.03516 0.0413 0.02665 0.0655-0.01664 0.0473-0.07514 0.0601-0.11785 0.0431-0.07699-0.0307-0.09666-0.12708-0.06582-0.19741 0.05213-0.1189 0.20278-0.14791 0.3125-0.0962 0.17615 0.083 0.21747 0.3088 0.13564 0.4727-0.1259 0.25219-0.4526 0.30937-0.68886 0.18575-0.35085-0.18357-0.42804-0.64248-0.2482-0.97304 0.25914-0.47633 0.88766-0.57838 1.3386-0.32481 0.63322 0.35606 0.7657 1.1983 0.41749 1.8002-0.47808 0.82649-1.5854 0.99575-2.3739 0.52831-1.0615-0.62929-1.2748-2.0609-0.65942-3.0768 0.81409-1.3441 2.6377-1.6094 3.9276-0.81313 1.6804 1.0373 2.0067 3.3298 0.99185 4.9464-1.3039 2.0769-4.1519 2.4743-6.1543 1.1981-2.5408-1.6193-3.0203-5.1197-1.4346-7.5741 1.9894-3.0793 6.2501-3.6531 9.2299-1.7041 3.7002 2.4203 4.3817 7.5608 2.0095 11.147-2.9183 4.4119-9.0704 5.2156-13.353 2.3539-5.2229-3.4904-6.1648-10.799-2.7404-15.875 4.1436-6.1424 12.766-7.2395 18.743-3.1724 7.1797 4.8855 8.4507 14.995 3.6532 21.989-5.724 8.3449-17.508 9.8098-25.645 4.1864-9.6483-6.6673-11.329-20.328-4.7757-29.745 7.7239-11.101 23.48-13.02 34.325-5.425 12.713 8.9029 14.895 26.99 6.1381 39.421-10.214 14.498-30.886 16.97-45.072 6.9192-16.466-11.666-19.256-35.194-7.7724-51.317 13.269-18.631 39.943-21.769 58.199-8.7022 21.005 15.034 24.523 45.165 9.7129 65.76-16.972 23.602-50.889 27.533-74.044 10.809-26.436-19.093-30.817-57.147-11.996-83.098 21.41-29.521 63.974-34.389 92.968-13.278 32.872 23.934 38.267 71.402 14.66 103.7-26.678 36.505-79.468 42.468-115.35 16.148-40.432-29.654-47.01-88.208-17.745-127.97 32.875-44.674 97.658-51.911 141.62-19.46 49.245 36.355 57.191 107.86 21.296 156.33-40.108 54.163-118.85 62.869-172.18 23.259-9.7694-7.2554-18.496-15.898-25.867-25.579" stroke-width="12.966"/>
  <path transform="matrix(.23122 0 0 .21101 40.597 565.5)" d="m64.286 320.93c-4e-6 1e-5 -1.2e-5 0-1.5e-5 -1e-5 -6.9e-5 -1.2e-4 1.59e-4 -2.3e-4 2.37e-4 -2.5e-4 7.7e-4 -1.8e-4 0.0012 8.8e-4 0.0012 1e-3 6.2e-5 3e-3 -0.0032 4e-3 -0.0054 3e-3 -0.0068-7.8e-4 -0.0091-9e-3 -0.0079-0.0146 0.0031-0.0144 0.02055-0.0189 0.03305-0.0153 0.02728 8e-3 0.03516 0.0413 0.02665 0.0655-0.01664 0.0473-0.07514 0.0601-0.11785 0.0431-0.07699-0.0307-0.09666-0.12708-0.06582-0.19741 0.05213-0.1189 0.20278-0.14791 0.3125-0.0962 0.17615 0.083 0.21747 0.3088 0.13564 0.4727-0.1259 0.25219-0.4526 0.30937-0.68886 0.18575-0.35085-0.18357-0.42804-0.64248-0.2482-0.97304 0.25914-0.47633 0.88766-0.57838 1.3386-0.32481 0.63322 0.35606 0.7657 1.1983 0.41749 1.8002-0.47808 0.82649-1.5854 0.99575-2.3739 0.52831-1.0615-0.62929-1.2748-2.0609-0.65942-3.0768 0.81409-1.3441 2.6377-1.6094 3.9276-0.81313 1.6804 1.0373 2.0067 3.3298 0.99185 4.9464-1.3039 2.0769-4.1519 2.4743-6.1543 1.1981-2.5408-1.6193-3.0203-5.1197-1.4346-7.5741 1.9894-3.0793 6.2501-3.6531 9.2299-1.7041 3.7002 2.4203 4.3817 7.5608 2.0095 11.147-2.9183 4.4119-9.0704 5.2156-13.353 2.3539-5.2229-3.4904-6.1648-10.799-2.7404-15.875 4.1436-6.1424 12.766-7.2395 18.743-3.1724 7.1797 4.8855 8.4507 14.995 3.6532 21.989-5.724 8.3449-17.508 9.8098-25.645 4.1864-9.6483-6.6673-11.329-20.328-4.7757-29.745 7.7239-11.101 23.48-13.02 34.325-5.425 12.713 8.9029 14.895 26.99 6.1381 39.421-10.214 14.498-30.886 16.97-45.072 6.9192-16.466-11.666-19.256-35.194-7.7724-51.317 13.269-18.631 39.943-21.769 58.199-8.7022 21.005 15.034 24.523 45.165 9.7129 65.76-16.972 23.602-50.889 27.533-74.044 10.809-26.436-19.093-30.817-57.147-11.996-83.098 21.41-29.521 63.974-34.389 92.968-13.278 32.872 23.934 38.267 71.402 14.66 103.7-26.678 36.505-79.468 42.468-115.35 16.148-40.432-29.654-47.01-88.208-17.745-127.97 32.875-44.674 97.658-51.911 141.62-19.46 49.245 36.355 57.191 107.86 21.296 156.33-40.108 54.163-118.85 62.869-172.18 23.259-9.7694-7.2554-18.496-15.898-25.867-25.579" stroke-width="12.966"/>
  <path transform="translate(-136.63 280.09)" d="m64.286 320.93c-4e-6 1e-5 -1.2e-5 0-1.5e-5 -1e-5 -6.9e-5 -1.2e-4 1.59e-4 -2.3e-4 2.37e-4 -2.5e-4 7.7e-4 -1.8e-4 0.0012 8.8e-4 0.0012 1e-3 6.2e-5 3e-3 -0.0032 4e-3 -0.0054 3e-3 -0.0068-7.8e-4 -0.0091-9e-3 -0.0079-0.0146 0.0031-0.0144 0.02055-0.0189 0.03305-0.0153 0.02728 8e-3 0.03516 0.0413 0.02665 0.0655-0.01664 0.0473-0.07514 0.0601-0.11785 0.0431-0.07699-0.0307-0.09666-0.12708-0.06582-0.19741 0.05213-0.1189 0.20278-0.14791 0.3125-0.0962 0.17615 0.083 0.21747 0.3088 0.13564 0.4727-0.1259 0.25219-0.4526 0.30937-0.68886 0.18575-0.35085-0.18357-0.42804-0.64248-0.2482-0.97304 0.25914-0.47633 0.88766-0.57838 1.3386-0.32481 0.63322 0.35606 0.7657 1.1983 0.41749 1.8002-0.47808 0.82649-1.5854 0.99575-2.3739 0.52831-1.0615-0.62929-1.2748-2.0609-0.65942-3.0768 0.81409-1.3441 2.6377-1.6094 3.9276-0.81313 1.6804 1.0373 2.0067 3.3298 0.99185 4.9464-1.3039 2.0769-4.1519 2.4743-6.1543 1.1981-2.5408-1.6193-3.0203-5.1197-1.4346-7.5741 1.9894-3.0793 6.2501-3.6531 9.2299-1.7041 3.7002 2.4203 4.3817 7.5608 2.0095 11.147-2.9183 4.4119-9.0704 5.2156-13.353 2.3539-5.2229-3.4904-6.1648-10.799-2.7404-15.875 4.1436-6.1424 12.766-7.2395 18.743-3.1724 7.1797 4.8855 8.4507 14.995 3.6532 21.989-5.724 8.3449-17.508 9.8098-25.645 4.1864-9.6483-6.6673-11.329-20.328-4.7757-29.745 7.7239-11.101 23.48-13.02 34.325-5.425 12.713 8.9029 14.895 26.99 6.1381 39.421-10.214 14.498-30.886 16.97-45.072 6.9192-16.466-11.666-19.256-35.194-7.7724-51.317 13.269-18.631 39.943-21.769 58.199-8.7022 21.005 15.034 24.523 45.165 9.7129 65.76-16.972 23.602-50.889 27.533-74.044 10.809-26.436-19.093-30.817-57.147-11.996-83.098 21.41-29.521 63.974-34.389 92.968-13.278 32.872 23.934 38.267 71.402 14.66 103.7-26.678 36.505-79.468 42.468-115.35 16.148-40.432-29.654-47.01-88.208-17.745-127.97 32.875-44.674 97.658-51.911 141.62-19.46 49.245 36.355 57.191 107.86 21.296 156.33-40.108 54.163-118.85 62.869-172.18 23.259-9.7694-7.2554-18.496-15.898-25.867-25.579" stroke-width="5"/>
  <path transform="translate(347.79 189.55)" d="m64.286 320.93c-4e-6 1e-5 -1.2e-5 0-1.5e-5 -1e-5 -6.9e-5 -1.2e-4 1.59e-4 -2.3e-4 2.37e-4 -2.5e-4 7.7e-4 -1.8e-4 0.0012 8.8e-4 0.0012 1e-3 6.2e-5 3e-3 -0.0032 4e-3 -0.0054 3e-3 -0.0068-7.8e-4 -0.0091-9e-3 -0.0079-0.0146 0.0031-0.0144 0.02055-0.0189 0.03305-0.0153 0.02728 8e-3 0.03516 0.0413 0.02665 0.0655-0.01664 0.0473-0.07514 0.0601-0.11785 0.0431-0.07699-0.0307-0.09666-0.12708-0.06582-0.19741 0.05213-0.1189 0.20278-0.14791 0.3125-0.0962 0.17615 0.083 0.21747 0.3088 0.13564 0.4727-0.1259 0.25219-0.4526 0.30937-0.68886 0.18575-0.35085-0.18357-0.42804-0.64248-0.2482-0.97304 0.25914-0.47633 0.88766-0.57838 1.3386-0.32481 0.63322 0.35606 0.7657 1.1983 0.41749 1.8002-0.47808 0.82649-1.5854 0.99575-2.3739 0.52831-1.0615-0.62929-1.2748-2.0609-0.65942-3.0768 0.81409-1.3441 2.6377-1.6094 3.9276-0.81313 1.6804 1.0373 2.0067 3.3298 0.99185 4.9464-1.3039 2.0769-4.1519 2.4743-6.1543 1.1981-2.5408-1.6193-3.0203-5.1197-1.4346-7.5741 1.9894-3.0793 6.2501-3.6531 9.2299-1.7041 3.7002 2.4203 4.3817 7.5608 2.0095 11.147-2.9183 4.4119-9.0704 5.2156-13.353 2.3539-5.2229-3.4904-6.1648-10.799-2.7404-15.875 4.1436-6.1424 12.766-7.2395 18.743-3.1724 7.1797 4.8855 8.4507 14.995 3.6532 21.989-5.724 8.3449-17.508 9.8098-25.645 4.1864-9.6483-6.6673-11.329-20.328-4.7757-29.745 7.7239-11.101 23.48-13.02 34.325-5.425 12.713 8.9029 14.895 26.99 6.1381 39.421-10.214 14.498-30.886 16.97-45.072 6.9192-16.466-11.666-19.256-35.194-7.7724-51.317 13.269-18.631 39.943-21.769 58.199-8.7022 21.005 15.034 24.523 45.165 9.7129 65.76-16.972 23.602-50.889 27.533-74.044 10.809-26.436-19.093-30.817-57.147-11.996-83.098 21.41-29.521 63.974-34.389 92.968-13.278 32.872 23.934 38.267 71.402 14.66 103.7-26.678 36.505-79.468 42.468-115.35 16.148-40.432-29.654-47.01-88.208-17.745-127.97 32.875-44.674 97.658-51.911 141.62-19.46 49.245 36.355 57.191 107.86 21.296 156.33-40.108 54.163-118.85 62.869-172.18 23.259-9.7694-7.2554-18.496-15.898-25.867-25.579" stroke-width="5"/>
  <path transform="translate(163.37 260.09)" d="m64.286 320.93c-4e-6 1e-5 -1.2e-5 0-1.5e-5 -1e-5 -6.9e-5 -1.2e-4 1.59e-4 -2.3e-4 2.37e-4 -2.5e-4 7.7e-4 -1.8e-4 0.0012 8.8e-4 0.0012 1e-3 6.2e-5 3e-3 -0.0032 4e-3 -0.0054 3e-3 -0.0068-7.8e-4 -0.0091-9e-3 -0.0079-0.0146 0.0031-0.0144 0.02055-0.0189 0.03305-0.0153 0.02728 8e-3 0.03516 0.0413 0.02665 0.0655-0.01664 0.0473-0.07514 0.0601-0.11785 0.0431-0.07699-0.0307-0.09666-0.12708-0.06582-0.19741 0.05213-0.1189 0.20278-0.14791 0.3125-0.0962 0.17615 0.083 0.21747 0.3088 0.13564 0.4727-0.1259 0.25219-0.4526 0.30937-0.68886 0.18575-0.35085-0.18357-0.42804-0.64248-0.2482-0.97304 0.25914-0.47633 0.88766-0.57838 1.3386-0.32481 0.63322 0.35606 0.7657 1.1983 0.41749 1.8002-0.47808 0.82649-1.5854 0.99575-2.3739 0.52831-1.0615-0.62929-1.2748-2.0609-0.65942-3.0768 0.81409-1.3441 2.6377-1.6094 3.9276-0.81313 1.6804 1.0373 2.0067 3.3298 0.99185 4.9464-1.3039 2.0769-4.1519 2.4743-6.1543 1.1981-2.5408-1.6193-3.0203-5.1197-1.4346-7.5741 1.9894-3.0793 6.2501-3.6531 9.2299-1.7041 3.7002 2.4203 4.3817 7.5608 2.0095 11.147-2.9183 4.4119-9.0704 5.2156-13.353 2.3539-5.2229-3.4904-6.1648-10.799-2.7404-15.875 4.1436-6.1424 12.766-7.2395 18.743-3.1724 7.1797 4.8855 8.4507 14.995 3.6532 21.989-5.724 8.3449-17.508 9.8098-25.645 4.1864-9.6483-6.6673-11.329-20.328-4.7757-29.745 7.7239-11.101 23.48-13.02 34.325-5.425 12.713 8.9029 14.895 26.99 6.1381 39.421-10.214 14.498-30.886 16.97-45.072 6.9192-16.466-11.666-19.256-35.194-7.7724-51.317 13.269-18.631 39.943-21.769 58.199-8.7022 21.005 15.034 24.523 45.165 9.7129 65.76-16.972 23.602-50.889 27.533-74.044 10.809-26.436-19.093-30.817-57.147-11.996-83.098 21.41-29.521 63.974-34.389 92.968-13.278 32.872 23.934 38.267 71.402 14.66 103.7-26.678 36.505-79.468 42.468-115.35 16.148-40.432-29.654-47.01-88.208-17.745-127.97 32.875-44.674 97.658-51.911 141.62-19.46 49.245 36.355 57.191 107.86 21.296 156.33-40.108 54.163-118.85 62.869-172.18 23.259-9.7694-7.2554-18.496-15.898-25.867-25.579" stroke-width="5"/>
  <path transform="matrix(.2711 .15058 -.13388 .24103 225.58 563.56)" d="m64.286 320.93c-4e-6 1e-5 -1.2e-5 0-1.5e-5 -1e-5 -6.9e-5 -1.2e-4 1.59e-4 -2.3e-4 2.37e-4 -2.5e-4 7.7e-4 -1.8e-4 0.0012 8.8e-4 0.0012 1e-3 6.2e-5 3e-3 -0.0032 4e-3 -0.0054 3e-3 -0.0068-7.8e-4 -0.0091-9e-3 -0.0079-0.0146 0.0031-0.0144 0.02055-0.0189 0.03305-0.0153 0.02728 8e-3 0.03516 0.0413 0.02665 0.0655-0.01664 0.0473-0.07514 0.0601-0.11785 0.0431-0.07699-0.0307-0.09666-0.12708-0.06582-0.19741 0.05213-0.1189 0.20278-0.14791 0.3125-0.0962 0.17615 0.083 0.21747 0.3088 0.13564 0.4727-0.1259 0.25219-0.4526 0.30937-0.68886 0.18575-0.35085-0.18357-0.42804-0.64248-0.2482-0.97304 0.25914-0.47633 0.88766-0.57838 1.3386-0.32481 0.63322 0.35606 0.7657 1.1983 0.41749 1.8002-0.47808 0.82649-1.5854 0.99575-2.3739 0.52831-1.0615-0.62929-1.2748-2.0609-0.65942-3.0768 0.81409-1.3441 2.6377-1.6094 3.9276-0.81313 1.6804 1.0373 2.0067 3.3298 0.99185 4.9464-1.3039 2.0769-4.1519 2.4743-6.1543 1.1981-2.5408-1.6193-3.0203-5.1197-1.4346-7.5741 1.9894-3.0793 6.2501-3.6531 9.2299-1.7041 3.7002 2.4203 4.3817 7.5608 2.0095 11.147-2.9183 4.4119-9.0704 5.2156-13.353 2.3539-5.2229-3.4904-6.1648-10.799-2.7404-15.875 4.1436-6.1424 12.766-7.2395 18.743-3.1724 7.1797 4.8855 8.4507 14.995 3.6532 21.989-5.724 8.3449-17.508 9.8098-25.645 4.1864-9.6483-6.6673-11.329-20.328-4.7757-29.745 7.7239-11.101 23.48-13.02 34.325-5.425 12.713 8.9029 14.895 26.99 6.1381 39.421-10.214 14.498-30.886 16.97-45.072 6.9192-16.466-11.666-19.256-35.194-7.7724-51.317 13.269-18.631 39.943-21.769 58.199-8.7022 21.005 15.034 24.523 45.165 9.7129 65.76-16.972 23.602-50.889 27.533-74.044 10.809-26.436-19.093-30.817-57.147-11.996-83.098 21.41-29.521 63.974-34.389 92.968-13.278 32.872 23.934 38.267 71.402 14.66 103.7-26.678 36.505-79.468 42.468-115.35 16.148-40.432-29.654-47.01-88.208-17.745-127.97 32.875-44.674 97.658-51.911 141.62-19.46 49.245 36.355 57.191 107.86 21.296 156.33-40.108 54.163-118.85 62.869-172.18 23.259-9.7694-7.2554-18.496-15.898-25.867-25.579" stroke-width="12.966"/>
  <path transform="matrix(.2711 .15058 -.13388 .24103 166.14 552.8)" d="m64.286 320.93c-4e-6 1e-5 -1.2e-5 0-1.5e-5 -1e-5 -6.9e-5 -1.2e-4 1.59e-4 -2.3e-4 2.37e-4 -2.5e-4 7.7e-4 -1.8e-4 0.0012 8.8e-4 0.0012 1e-3 6.2e-5 3e-3 -0.0032 4e-3 -0.0054 3e-3 -0.0068-7.8e-4 -0.0091-9e-3 -0.0079-0.0146 0.0031-0.0144 0.02055-0.0189 0.03305-0.0153 0.02728 8e-3 0.03516 0.0413 0.02665 0.0655-0.01664 0.0473-0.07514 0.0601-0.11785 0.0431-0.07699-0.0307-0.09666-0.12708-0.06582-0.19741 0.05213-0.1189 0.20278-0.14791 0.3125-0.0962 0.17615 0.083 0.21747 0.3088 0.13564 0.4727-0.1259 0.25219-0.4526 0.30937-0.68886 0.18575-0.35085-0.18357-0.42804-0.64248-0.2482-0.97304 0.25914-0.47633 0.88766-0.57838 1.3386-0.32481 0.63322 0.35606 0.7657 1.1983 0.41749 1.8002-0.47808 0.82649-1.5854 0.99575-2.3739 0.52831-1.0615-0.62929-1.2748-2.0609-0.65942-3.0768 0.81409-1.3441 2.6377-1.6094 3.9276-0.81313 1.6804 1.0373 2.0067 3.3298 0.99185 4.9464-1.3039 2.0769-4.1519 2.4743-6.1543 1.1981-2.5408-1.6193-3.0203-5.1197-1.4346-7.5741 1.9894-3.0793 6.2501-3.6531 9.2299-1.7041 3.7002 2.4203 4.3817 7.5608 2.0095 11.147-2.9183 4.4119-9.0704 5.2156-13.353 2.3539-5.2229-3.4904-6.1648-10.799-2.7404-15.875 4.1436-6.1424 12.766-7.2395 18.743-3.1724 7.1797 4.8855 8.4507 14.995 3.6532 21.989-5.724 8.3449-17.508 9.8098-25.645 4.1864-9.6483-6.6673-11.329-20.328-4.7757-29.745 7.7239-11.101 23.48-13.02 34.325-5.425 12.713 8.9029 14.895 26.99 6.1381 39.421-10.214 14.498-30.886 16.97-45.072 6.9192-16.466-11.666-19.256-35.194-7.7724-51.317 13.269-18.631 39.943-21.769 58.199-8.7022 21.005 15.034 24.523 45.165 9.7129 65.76-16.972 23.602-50.889 27.533-74.044 10.809-26.436-19.093-30.817-57.147-11.996-83.098 21.41-29.521 63.974-34.389 92.968-13.278 32.872 23.934 38.267 71.402 14.66 103.7-26.678 36.505-79.468 42.468-115.35 16.148-40.432-29.654-47.01-88.208-17.745-127.97 32.875-44.674 97.658-51.911 141.62-19.46 49.245 36.355 57.191 107.86 21.296 156.33-40.108 54.163-118.85 62.869-172.18 23.259-9.7694-7.2554-18.496-15.898-25.867-25.579" stroke-width="12.966"/>
  <path transform="matrix(.26893 0 0 .2434 -87.911 399.44)" d="m64.286 320.93c-4e-6 1e-5 -1.2e-5 0-1.5e-5 -1e-5 -6.9e-5 -1.2e-4 1.59e-4 -2.3e-4 2.37e-4 -2.5e-4 7.7e-4 -1.8e-4 0.0012 8.8e-4 0.0012 1e-3 6.2e-5 3e-3 -0.0032 4e-3 -0.0054 3e-3 -0.0068-7.8e-4 -0.0091-9e-3 -0.0079-0.0146 0.0031-0.0144 0.02055-0.0189 0.03305-0.0153 0.02728 8e-3 0.03516 0.0413 0.02665 0.0655-0.01664 0.0473-0.07514 0.0601-0.11785 0.0431-0.07699-0.0307-0.09666-0.12708-0.06582-0.19741 0.05213-0.1189 0.20278-0.14791 0.3125-0.0962 0.17615 0.083 0.21747 0.3088 0.13564 0.4727-0.1259 0.25219-0.4526 0.30937-0.68886 0.18575-0.35085-0.18357-0.42804-0.64248-0.2482-0.97304 0.25914-0.47633 0.88766-0.57838 1.3386-0.32481 0.63322 0.35606 0.7657 1.1983 0.41749 1.8002-0.47808 0.82649-1.5854 0.99575-2.3739 0.52831-1.0615-0.62929-1.2748-2.0609-0.65942-3.0768 0.81409-1.3441 2.6377-1.6094 3.9276-0.81313 1.6804 1.0373 2.0067 3.3298 0.99185 4.9464-1.3039 2.0769-4.1519 2.4743-6.1543 1.1981-2.5408-1.6193-3.0203-5.1197-1.4346-7.5741 1.9894-3.0793 6.2501-3.6531 9.2299-1.7041 3.7002 2.4203 4.3817 7.5608 2.0095 11.147-2.9183 4.4119-9.0704 5.2156-13.353 2.3539-5.2229-3.4904-6.1648-10.799-2.7404-15.875 4.1436-6.1424 12.766-7.2395 18.743-3.1724 7.1797 4.8855 8.4507 14.995 3.6532 21.989-5.724 8.3449-17.508 9.8098-25.645 4.1864-9.6483-6.6673-11.329-20.328-4.7757-29.745 7.7239-11.101 23.48-13.02 34.325-5.425 12.713 8.9029 14.895 26.99 6.1381 39.421-10.214 14.498-30.886 16.97-45.072 6.9192-16.466-11.666-19.256-35.194-7.7724-51.317 13.269-18.631 39.943-21.769 58.199-8.7022 21.005 15.034 24.523 45.165 9.7129 65.76-16.972 23.602-50.889 27.533-74.044 10.809-26.436-19.093-30.817-57.147-11.996-83.098 21.41-29.521 63.974-34.389 92.968-13.278 32.872 23.934 38.267 71.402 14.66 103.7-26.678 36.505-79.468 42.468-115.35 16.148-40.432-29.654-47.01-88.208-17.745-127.97 32.875-44.674 97.658-51.911 141.62-19.46 49.245 36.355 57.191 107.86 21.296 156.33-40.108 54.163-118.85 62.869-172.18 23.259-9.7694-7.2554-18.496-15.898-25.867-25.579" stroke-width="12.966"/>
  <path transform="matrix(.26893 0 0 .2434 -137.51 416.61)" d="m64.286 320.93c-4e-6 1e-5 -1.2e-5 0-1.5e-5 -1e-5 -6.9e-5 -1.2e-4 1.59e-4 -2.3e-4 2.37e-4 -2.5e-4 7.7e-4 -1.8e-4 0.0012 8.8e-4 0.0012 1e-3 6.2e-5 3e-3 -0.0032 4e-3 -0.0054 3e-3 -0.0068-7.8e-4 -0.0091-9e-3 -0.0079-0.0146 0.0031-0.0144 0.02055-0.0189 0.03305-0.0153 0.02728 8e-3 0.03516 0.0413 0.02665 0.0655-0.01664 0.0473-0.07514 0.0601-0.11785 0.0431-0.07699-0.0307-0.09666-0.12708-0.06582-0.19741 0.05213-0.1189 0.20278-0.14791 0.3125-0.0962 0.17615 0.083 0.21747 0.3088 0.13564 0.4727-0.1259 0.25219-0.4526 0.30937-0.68886 0.18575-0.35085-0.18357-0.42804-0.64248-0.2482-0.97304 0.25914-0.47633 0.88766-0.57838 1.3386-0.32481 0.63322 0.35606 0.7657 1.1983 0.41749 1.8002-0.47808 0.82649-1.5854 0.99575-2.3739 0.52831-1.0615-0.62929-1.2748-2.0609-0.65942-3.0768 0.81409-1.3441 2.6377-1.6094 3.9276-0.81313 1.6804 1.0373 2.0067 3.3298 0.99185 4.9464-1.3039 2.0769-4.1519 2.4743-6.1543 1.1981-2.5408-1.6193-3.0203-5.1197-1.4346-7.5741 1.9894-3.0793 6.2501-3.6531 9.2299-1.7041 3.7002 2.4203 4.3817 7.5608 2.0095 11.147-2.9183 4.4119-9.0704 5.2156-13.353 2.3539-5.2229-3.4904-6.1648-10.799-2.7404-15.875 4.1436-6.1424 12.766-7.2395 18.743-3.1724 7.1797 4.8855 8.4507 14.995 3.6532 21.989-5.724 8.3449-17.508 9.8098-25.645 4.1864-9.6483-6.6673-11.329-20.328-4.7757-29.745 7.7239-11.101 23.48-13.02 34.325-5.425 12.713 8.9029 14.895 26.99 6.1381 39.421-10.214 14.498-30.886 16.97-45.072 6.9192-16.466-11.666-19.256-35.194-7.7724-51.317 13.269-18.631 39.943-21.769 58.199-8.7022 21.005 15.034 24.523 45.165 9.7129 65.76-16.972 23.602-50.889 27.533-74.044 10.809-26.436-19.093-30.817-57.147-11.996-83.098 21.41-29.521 63.974-34.389 92.968-13.278 32.872 23.934 38.267 71.402 14.66 103.7-26.678 36.505-79.468 42.468-115.35 16.148-40.432-29.654-47.01-88.208-17.745-127.97 32.875-44.674 97.658-51.911 141.62-19.46 49.245 36.355 57.191 107.86 21.296 156.33-40.108 54.163-118.85 62.869-172.18 23.259-9.7694-7.2554-18.496-15.898-25.867-25.579" stroke-width="12.966"/>
 </g>
</svg>
